<?xml version="1.0" standalone="no"?>
<!DOCTYPE svg PUBLIC "-//W3C//DTD SVG 1.1//EN" "http://www.w3.org/Graphics/SVG/1.1/DTD/svg11.dtd" >
<svg>
<font id="Typeface" horiz-adv-x="56" >
<font-face units-per-em="100" ascent="80" descent="-20" />
<glyph unicode=" " horiz-adv-x="56" d="" />
<glyph unicode="!" horiz-adv-x="56" d="M27.53013 68.79265 C27.53013 57.45789 27.13402 46.03776 25.93258 34.77426 C25.84419 33.94553 23.55526 17.20123 24.8049 17.20123 M22.64351 5.73647 C22.64351 7.88653 29.45498 12.65155 29.7855 10.99898 C31.85089 0.67199 17.84233 -0.28637 25.55669 7.42799 " />
<glyph unicode="&#x22;" horiz-adv-x="56" d="M22.92543 70.29622 C22.92543 65.67056 22.05547 60.15043 21.32789 55.54239 M33.54443 69.45046 C33.54443 62.96687 33.92033 56.42382 33.92033 49.90398 " />
<glyph unicode="#" horiz-adv-x="56" d="M23.3953 61.55669 C23.3953 46.85154 15.28855 31.89878 11.64862 17.85904 C10.32309 12.74626 9.34489 7.48223 7.79571 2.4474 C7.39353 1.14031 6.8 0.27906 6.8 0.27906 M43.50562 61.36874 C43.50562 38.10592 31.6 23.82267 31.6 0.27906 M53.27886 40.41267 C41.45414 38.56505 29.83536 36.37181 17.85087 36.37181 C17.72886 36.37181 1.59346 36.46747 1.59346 36.27783 M0.46578 16.82533 C20.93026 16.82533 36.57454 18.63091 56.1 24.87906 " />
<glyph unicode="$" horiz-adv-x="56" d="M51.58733 59.67722 C43.03855 76.77479 15.59551 70.89766 15.59551 48.68233 C15.59551 26.59314 64.11208 42.08906 54.50051 13.25434 C47.4854 -0.77587 19.62665 -8.42438 13.71604 9.30746 M40.59244 73.30337 C38.44906 75.44675 38.60597 67.57239 37.77324 64.65781 C36.01855 58.51641 34.65112 52.36739 33.73238 46.05107 C31.28091 29.1972 26.15412 12.03949 20.76404 -4.13075 C20.76404 -4.13075 20.01961 -5.323 20.10623 -4.97651 M41.90807 73.49132 C43.36892 73.49132 42.95079 64.88522 42.8478 63.71808 C42.22341 56.6416 39.78182 49.54795 38.80695 42.48008 C38.36013 39.24067 35.64566 2.76313 32.2288 -0.65373 C32.2288 -0.98934 31.00715 -2.86077 31.00715 -2.34525 " />
<glyph unicode="%" horiz-adv-x="56" d="M15.40756 -3.9428 C15.40756 0.20513 32.28554 32.05828 34.67211 38.1573 C35.02013 39.04667 39.81873 51.03166 40.68641 51.03166 M14.84372 38.34525 C13.30439 38.34525 14.22721 28.96398 17.75689 31.48519 C22.57082 34.92371 14.93769 40.39138 14.93769 37.40552 M41.72012 20.77222 C25.53416 8.63275 56.66896 5.25954 42.28396 19.64453 " />
<glyph unicode="&#x26;" horiz-adv-x="56" d="M45.94893 16.82533 C45.32962 14.34808 44.49393 12.05403 43.12972 9.8713 C37.15828 0.31699 11.92608 -10.63722 15.68948 8.17978 C19.00604 14.8129 39.29888 49.24249 25.74464 51.50153 C-0.28303 55.83948 28.97302 0.75587 42.56588 0.75587 " />
<glyph unicode="'" horiz-adv-x="56" d="M25.93258 56.10623 C25.93258 55.18945 25.73883 44.5475 24.99285 44.5475 " />
<glyph unicode="(" horiz-adv-x="56" d="M27.62411 0.19203 C24.15359 0.19203 21.70378 10.97964 21.70378 13.44229 C19.92746 24.1002 18.09832 51.8132 29.87947 57.70378 " />
<glyph unicode=")" horiz-adv-x="56" d="M24.71093 57.89173 C24.71093 57.98042 27.08316 56.48844 27.34219 56.29418 C30.65044 53.81299 32.9168 50.53505 33.92033 46.52094 C36.47607 36.29798 36.55158 25.64766 36.55158 15.03984 C36.55158 12.13708 32.30009 0.09806 28.46987 0.09806 " />
<glyph unicode="*" horiz-adv-x="56" d="M39.08887 1.13177 C39.08887 1.13177 38.25413 2.15996 37.67926 2.4474 C37.67926 10.17214 16.77016 26.36365 13.05822 30.07559 M37.39734 29.51175 C37.39734 29.51175 31.82122 22.57471 28.84576 19.26864 C23.13724 12.92584 17.17437 6.56354 11.17875 0.56793 " />
<glyph unicode="+" horiz-adv-x="56" d="M25.93258 34.30439 C25.93258 24.75461 25.46272 15.11189 25.46272 5.54852 M9.48723 19.64453 C21.91005 19.64453 34.49452 19.26864 46.98264 19.26864 " />
<glyph unicode="," horiz-adv-x="56" d="M27.53013 7.80388 C14.82319 7.80388 35.61269 20.87934 30.91318 5.73647 C28.52407 -1.96178 19.59796 -4.98032 12.40041 -1.78141 " />
<glyph unicode="-" horiz-adv-x="56" d="M15.9714 28.66599 C26.37399 28.66599 36.83941 28.47804 47.26456 28.47804 " />
<glyph unicode="." horiz-adv-x="56" d="M27.80834 3.25654 Q27.52909 3.14087 27.24821 3.14087 Q26.96734 3.14087 26.68809 3.25653 Q26.40885 3.3722 26.21024 3.57081 Q26.01163 3.76942 25.89597 4.04867 Q25.7803 4.32791 25.7803 4.60878 Q25.7803 4.88966 25.89597 5.1689 Q26.01163 5.44814 26.21024 5.64675 Q26.40885 5.84536 26.68809 5.96103 Q26.96734 6.0767 27.24821 6.0767 Q27.52909 6.0767 27.80833 5.96103 Q28.08757 5.84535 28.28618 5.64675 Q28.48479 5.44815 28.60046 5.1689 Q28.71612 4.88966 28.71612 4.60878 Q28.71612 4.32791 28.60046 4.04867 Q28.48479 3.76942 28.28618 3.57081 Q28.08758 3.37221 27.80834 3.25654 z" />
<glyph unicode="/" horiz-adv-x="56" d="M44.91522 49.90398 C44.00736 48.99613 43.31293 47.17164 42.56588 46.05107 C32.57811 31.06942 21.81344 13.364 9.11134 0.6619 " />
<glyph unicode="0" horiz-adv-x="56" d="M14.23269 40.42377 Q17.3 44.87906 26.03344 52.91412 Q34.76688 60.94918 40.84652 60.97468 Q54.47526 60.97468 54.20998 42.51882 Q53.9447 24.06295 34.54739 8.84938 Q29.29813 4.89449 20.41141 2.35543 Q11.5247 -0.18364 8.72095 0.10933 Q1.02 0.92356 1.61 15.25131 Q2.2 29.57906 28.90751 50.98824 " />
<glyph unicode="1" horiz-adv-x="56" d="M27.8 34.51898 C31.96173 40.7344 40.28518 53.16524 44.4469 59.38066 C40.08658 44.56445 31.36592 14.93203 27.0056 0.11582 M2.09031 1.84865 C3.91453 1.18125 7.56296 -0.15354 9.38718 -0.82094 C21.02213 -0.44275 44.29204 0.31363 55.92699 0.69183 " />
<glyph unicode="2" horiz-adv-x="56" d="M53.48539 -0.30318 Q36.6 0.99682 29.4 1.04682 Q22.2 1.09682 1.8 -0.11524 Q21 1.59682 35.13047 18.25537 Q49.26094 34.91392 45.96752 42.73665 Q39.5 53.39682 25.08978 52.87906 Q10.67957 52.3613 7.62462 48.38987 Q7.52462 45.48987 8.97462 44.38987 Q10.42462 43.28987 11.32462 42.68987 " />
<glyph unicode="3" horiz-adv-x="56" d="M47.98159 58.7741 C48.67217 58.63866 49.34456 58.47302 50.02295 58.28553 C50.86084 58.02969 51.67626 57.76626 52.50992 57.48043 C52.51817 57.46576 52.52643 57.45108 52.53468 57.43641 C53.05267 56.46714 53.54225 55.52047 53.92893 54.49291 C54.10593 53.95389 54.2452 53.42 54.35206 52.86286 C54.45479 52.15668 54.54184 51.33322 54.53906 51.13132 C54.46265 49.88685 54.17443 48.79037 53.66262 47.65146 C53.16992 46.67639 52.58329 45.80226 51.91167 44.94104 C51.28527 44.21892 51.00963 43.91146 50.71307 43.64201 C49.50109 42.5408 48.28911 41.43959 47.07713 40.33838 C46.24607 39.58329 45.41502 38.82819 44.58396 38.07309 C43.51759 37.10418 42.75402 36.40895 42.7159 36.37581 C42.02779 35.71751 41.39547 35.01882 40.73682 34.33218 C40.3284 33.9458 39.91315 33.59947 39.45157 33.2786 C38.09513 32.43041 36.95028 32.10354 36.89972 32.09154 C35.47446 31.75952 34.0497 31.43315 32.61702 31.1351 C32.00578 31.01167 31.39428 30.8896 30.78308 30.76597 C30.32685 30.64949 30.69037 30.74839 31.8743 30.77847 C32.99616 30.80698 33.15599 30.80782 34.27685 30.8281 C35.33874 30.84061 36.39951 30.84634 37.46143 30.83741 C39.563 30.78026 41.57677 30.46402 43.56256 29.77439 C44.40572 29.44081 45.20059 29.06192 45.97248 28.58552 C46.72186 28.0744 46.86747 27.91418 46.93721 27.84137 C47.9 26.81386 48.84015 25.78103 49.73315 24.6925 C50.10975 24.20535 50.47204 23.71833 50.80934 23.20331 C51.06055 22.78138 51.21053 22.4775 51.26695 22.28518 C51.50478 21.26641 51.41135 20.31167 51.26109 19.27863 C51.12507 18.54072 50.97599 17.8061 50.82739 17.07064 C50.72964 16.53346 50.63518 16.02946 50.57924 15.48399 C50.56882 15.47305 50.5584 15.46211 50.54798 15.45117 C49.50541 14.35648 48.46285 13.26179 47.42029 12.1671 C46.7054 11.41647 45.99051 10.66584 45.27563 9.91521 C44.73631 9.34892 44.19699 8.78264 43.65767 8.21635 C43.65225 8.21319 43.64683 8.21003 43.64141 8.20686 C42.7031 7.65952 41.76479 7.11217 40.82648 6.56482 C40.18308 6.18951 39.53969 5.81419 38.89629 5.43888 C38.41102 5.1558 37.92575 4.87273 37.44048 4.58965 C37.43632 4.58823 37.43216 4.5868 37.428 4.58537 C35.7599 4.01196 34.0918 3.43855 32.42369 2.86514 C31.27988 2.47195 30.13606 2.07876 28.99224 1.68558 C28.1305 1.38935 27.26875 1.09313 26.40701 0.7969 C26.40092 0.79655 26.39483 0.7962 26.38874 0.79584 C24.59032 0.69159 22.79189 0.58733 20.99347 0.48308 C19.76029 0.41159 18.52712 0.3401 17.29394 0.26861 C16.36529 0.21478 15.43664 0.16094 14.50799 0.10711 C14.50232 0.10827 14.49664 0.10944 14.49097 0.1106 C13.47447 0.31911 12.45797 0.52763 11.44147 0.73614 C10.74446 0.87911 10.04745 1.02209 9.35043 1.16507 C8.82381 1.27309 8.29719 1.38112 7.77056 1.48914 C7.76592 1.49128 7.76128 1.49342 7.75664 1.49557 C7.07897 1.80834 6.4013 2.12111 5.72364 2.43388 C5.25896 2.64834 4.79428 2.86281 4.32961 3.07728 C3.95884 3.2484 3.58807 3.41953 3.2173 3.59065 C3.21489 3.6159 3.21249 3.64115 3.21008 3.66639 C3.15795 4.21374 3.10582 4.76109 3.05369 5.30843 C3.01795 5.68375 2.9822 6.05906 2.94646 6.43438 C2.91971 6.71526 2.89296 6.99614 2.86621 7.27702 L3.12959 7.3021 C3.14443 7.14633 3.15927 6.99055 3.1741 6.83478 C3.18602 6.70967 3.19793 6.58457 3.20985 6.45946 C3.24559 6.08415 3.28134 5.70883 3.31708 5.33352 C3.36681 4.81139 3.41654 4.28927 3.46626 3.76715 C3.791 3.61727 4.11574 3.46739 4.44048 3.3175 C4.90516 3.10304 5.36984 2.88857 5.83451 2.67411 C6.29918 2.45964 6.7645 2.24653 7.22854 2.03071 C7.43214 1.93601 7.62444 1.81244 7.8387 1.74525 C8.3468 1.58592 8.88197 1.53125 9.4036 1.42425 C10.10061 1.28127 10.79763 1.1383 11.49464 0.99532 C12.19164 0.85235 12.88906 0.71124 13.58568 0.56639 C13.8939 0.5023 14.19543 0.38569 14.50996 0.37225 C15.43356 0.33277 16.35574 0.47925 17.27863 0.53275 C18.51181 0.60424 19.74498 0.67573 20.97816 0.74721 C22.21133 0.8187 23.4444 0.89228 24.67769 0.96168 C25.23115 0.99282 25.79343 0.95043 26.3382 1.05302 C27.22773 1.22054 28.05022 1.64153 28.90623 1.93579 C30.05005 2.32897 31.19387 2.72216 32.33769 3.11535 C33.98082 3.68017 35.72055 4.14686 37.31845 4.82478 C37.83162 5.0425 38.28147 5.38654 38.76297 5.66742 C39.40637 6.04273 40.04977 6.41805 40.69317 6.79336 C41.33655 7.16867 41.97885 7.54594 42.62336 7.91931 C42.9082 8.08432 43.22419 8.204 43.47901 8.4124 C44.07953 8.90351 44.54903 9.53592 45.08404 10.09768 C45.79892 10.84831 46.51381 11.59894 47.22869 12.34957 C48.26148 13.434 49.29427 14.51842 50.32706 15.60285 C50.46866 16.63793 50.38753 16.13133 50.56805 17.12304 C50.71569 17.85376 50.86394 18.58365 50.99928 19.31677 C51.14012 20.28223 51.27268 21.25216 51.01375 22.20844 C50.93183 22.511 50.74558 22.79319 50.58797 23.05841 C50.25614 23.56565 49.8993 24.04501 49.52858 24.5247 C48.41306 25.88475 47.29682 27.36083 45.83345 28.36041 C45.07844 28.82702 44.30061 29.19773 43.47572 29.52447 C41.0089 30.38216 39.49035 30.43948 38.94339 30.50355 C37.98668 30.5694 38.48135 30.54498 37.4592 30.57284 C36.39962 30.58177 35.34119 30.57604 34.28163 30.56356 C33.09215 30.54205 31.90295 30.51678 30.71377 30.48168 C29.17158 30.43616 29.32218 29.95529 29.22569 30.69781 C30.30873 30.93982 29.80686 30.83173 30.73063 31.0253 C31.34135 31.14883 31.95237 31.27081 32.56313 31.39413 C34.87839 31.87576 37.26557 32.22567 39.30064 33.4959 C39.74792 33.80627 40.15011 34.14142 40.54589 34.51535 C41.7956 35.8178 43.06758 37.05279 44.40604 38.26892 C45.23709 39.02401 46.06815 39.77911 46.8992 40.53421 C48.5328 42.0185 50.25404 43.43483 51.70307 45.10379 C52.36185 45.9478 52.93779 46.80432 53.42132 47.75998 C53.9185 48.86469 54.19998 49.92756 54.2745 51.13497 C54.15227 52.46321 54.22383 51.90512 54.0922 52.8131 C53.98851 53.35541 53.85327 53.87507 53.68128 54.39978 C53.30584 55.39891 52.83103 56.32056 52.32757 57.26272 C50.48036 57.87622 51.27414 57.62679 49.95244 58.03052 C49.28424 58.21534 48.62194 58.37887 47.94174 58.51254 C47.09435 58.64183 46.27006 58.69452 45.41254 58.71448 C44.15557 58.61872 42.9559 58.46361 41.72373 58.20155 C40.85345 57.97879 40.01142 57.72326 39.16301 57.42776 C37.09918 56.60812 35.11109 55.65293 33.63698 53.95195 C33.30846 53.53115 33.01219 53.10495 32.72564 52.65438 C32.28106 51.87908 31.90083 51.09033 31.54272 50.27166 C31.85803 49.52575 32.23095 48.85374 32.74909 48.22961 C33.09475 47.85639 33.46194 47.53853 33.87881 47.24722 C34.51822 46.84436 35.18499 46.55546 35.8851 46.2706 C35.85345 46.18828 35.8218 46.10596 35.79014 46.02365 C35.54691 46.1226 35.30207 46.21767 35.06046 46.32049 C34.60187 46.53091 34.16496 46.75473 33.73787 47.0233 C33.30154 47.32756 32.91715 47.65981 32.55509 48.0497 C31.99474 48.72299 31.57644 49.45851 31.25594 50.27432 C31.26291 50.29087 31.26988 50.30742 31.27685 50.32398 C31.64679 51.16977 32.03711 51.98484 32.49609 52.78595 C32.7892 53.24731 33.09236 53.68374 33.42838 54.1147 C33.78163 54.5229 34.44934 55.22795 34.90301 55.54063 C36.24144 56.39437 37.58983 57.08718 39.06532 57.67365 C39.92433 57.97309 40.77691 58.23205 41.65809 58.45785 C43.106 58.7662 45.16156 58.97906 45.41254 58.97906 C46.28341 58.95886 47.12093 58.90505 47.98159 58.7741 z" />
<glyph unicode="4" horiz-adv-x="56" d="M34.24132 58.94196 C34.38592 59.5537 34.53052 60.16545 34.67512 60.7772 C34.76095 60.75691 34.84677 60.73663 34.9326 60.71634 C34.85241 60.37707 34.77221 60.03779 34.69202 59.69852 C34.62761 59.42604 34.56321 59.15357 34.4988 58.88109 C34.30559 58.06367 34.11237 57.24624 33.91915 56.42881 C33.6349 55.22623 33.35064 54.02364 33.06638 52.82105 C33.05938 52.81291 33.05238 52.80476 33.04538 52.79662 C32.43364 52.08476 31.82189 51.37291 31.21014 50.66106 C30.39272 49.70987 29.57529 48.75868 28.75787 47.80749 C25.73263 44.28719 22.79389 40.70567 19.86729 37.10181 C17.49927 34.1858 15.13125 31.26979 12.76323 28.35378 C10.01253 24.96653 7.29697 21.54717 4.48335 18.21193 C5.4989 19.29987 6.51445 20.38782 7.53 21.47576 C9.01648 23.06822 10.50297 24.66068 11.98946 26.25314 C11.99656 26.25669 12.00366 26.26023 12.01076 26.26378 C12.36669 26.44175 12.72261 26.61971 13.07854 26.79767 C13.55414 27.03547 14.02973 27.27327 14.50533 27.51107 C15.20585 27.86133 15.90638 28.21159 16.6069 28.56185 C16.61459 28.56275 16.62227 28.56365 16.62995 28.56455 C17.4864 28.66465 18.34285 28.76475 19.1993 28.86486 C20.34369 28.99862 21.48809 29.13238 22.63249 29.26614 C23.75775 29.39766 27.65224 29.85226 27.65481 29.85226 C28.4334 29.85226 29.21198 29.85226 29.99057 29.85226 C31.03093 29.85226 32.07129 29.85226 33.11165 29.85226 C34.63303 29.85226 36.15441 29.85226 37.6758 29.85226 C37.67985 29.85149 37.6839 29.85073 37.68796 29.84996 C38.3207 29.73053 38.95344 29.61109 39.58618 29.49166 C40.43166 29.33206 41.27713 29.17247 42.12261 29.01288 C43.35563 28.78014 44.58864 28.54739 45.82166 28.31465 L45.77258 28.05466 C45.38504 28.12781 44.99751 28.20096 44.60997 28.27412 C43.76449 28.43371 42.91901 28.5933 42.07354 28.75289 C41.22806 28.91248 40.38258 29.07208 39.5371 29.23167 C38.91237 29.34959 38.29707 29.53706 37.66332 29.58768 C36.17196 29.70681 34.60957 29.58768 33.11165 29.58768 C32.07129 29.58768 31.03093 29.58768 29.99057 29.58768 C29.21455 29.58768 28.43853 29.58768 27.66251 29.58768 C25.99608 29.3929 24.32964 29.19812 22.66321 29.00335 C21.51881 28.86959 20.37441 28.73583 19.23001 28.60207 C18.38845 28.5037 17.52904 28.50949 16.70443 28.3148 C16.46722 28.2588 16.26843 28.09681 16.05044 27.98781 C15.57484 27.75001 15.09925 27.51221 14.62365 27.27442 C14.14805 27.03662 13.67246 26.79882 13.19686 26.56103 C12.84094 26.38306 12.48501 26.2051 12.12908 26.02714 C10.66503 24.4456 9.19401 22.87066 7.72341 21.29522 C6.70786 20.20728 5.69231 19.11933 4.67676 18.03139 C3.91674 17.21719 3.15672 16.40299 2.39671 15.58879 L2.26138 15.44382 L2.0725 15.60877 C2.11418 15.66009 2.15586 15.71141 2.19753 15.76274 C5.65097 20.01535 9.10441 24.26796 12.55785 28.52057 C14.92587 31.43658 17.29388 34.35259 19.6619 37.2686 C21.71815 39.80069 24.68718 43.47661 24.9809 43.81839 C26.173 45.20557 27.3651 46.59276 28.55721 47.97994 C29.37463 48.93112 30.19206 49.88231 31.00948 50.8335 C31.28195 51.15057 31.55273 51.46909 31.8269 51.78469 C32.15502 52.16238 32.57282 52.47629 32.81633 52.91335 C33.00371 53.24968 32.99345 53.66271 33.08202 54.03739 C33.21083 54.58234 33.33964 55.12729 33.46845 55.67225 C33.53286 55.94472 33.59726 56.2172 33.66167 56.48967 C33.85488 57.3071 34.0481 58.12453 34.24132 58.94196 zM31.9948 1.20233 C31.89469 0.66844 31.79458 0.13455 31.69447 -0.39934 L31.43443 -0.35058 C31.48995 -0.05449 31.54546 0.24161 31.60098 0.5377 C31.64557 0.7755 31.69016 1.0133 31.73475 1.25109 C31.86851 1.96449 32.00228 2.67788 32.13605 3.39127 C32.33238 4.43835 32.52871 5.48543 32.72505 6.5325 C32.72824 6.53849 32.73144 6.54447 32.73464 6.55046 C34.03599 8.98633 35.33735 11.4222 36.6387 13.85807 C38.37759 17.11292 40.11648 20.36777 41.85537 23.62262 C43.59425 26.87746 45.33145 30.13322 47.07203 33.38716 C48.75796 36.53894 49.32933 37.30542 49.98504 40.13316 C50.22284 41.15866 50.46063 42.18416 50.69843 43.20966 C51.04523 44.70521 51.39202 46.20077 51.73882 47.69632 C51.82473 47.6764 51.91064 47.65648 51.99656 47.63656 C51.88756 47.1665 51.77856 46.69645 51.66956 46.22639 C51.43177 45.20089 51.19397 44.17539 50.95617 43.14989 C50.71837 42.12439 50.48058 41.09889 50.24278 40.07339 C50.0635 39.30024 49.88422 38.5271 49.70494 37.75395 C49.70214 37.74871 49.69934 37.74346 49.69653 37.73822 C47.1606 32.99146 44.62466 28.2447 42.08873 23.49794 C40.34984 20.2431 38.61095 16.98825 36.87206 13.7334 C35.57695 11.3092 34.14541 8.95345 32.98133 6.46367 C32.68999 5.84054 32.65979 4.74887 32.52986 4.0559 C32.48527 3.8181 32.44068 3.58031 32.39609 3.34251 C32.26233 2.62912 32.12856 1.91572 31.9948 1.20233 z" />
<glyph unicode="5" horiz-adv-x="56" d="M25.11379 49.41159 C24.41663 48.22998 23.71947 47.04837 23.0223 45.86677 C21.50133 43.28889 19.98036 40.71102 18.45938 38.13315 C16.93841 35.55528 15.41743 32.97741 13.89646 30.39954 C12.81644 28.56903 11.73642 26.73852 10.65639 24.90801 C14.26815 26.03821 17.87991 27.16842 21.49167 28.29862 C24.04321 29.09705 26.59475 29.89549 29.14628 30.69392 C31.06386 31.29397 32.98144 31.89403 34.89902 32.49408 C34.90746 32.49345 34.9159 32.49282 34.92434 32.49218 C36.09968 32.40408 37.27502 32.31597 38.45037 32.22786 C39.2563 32.16745 40.06223 32.10703 40.86816 32.04662 C41.49103 31.99993 42.11389 31.95324 42.73676 31.90655 C42.74878 31.89082 42.76081 31.87509 42.77283 31.85937 C43.36404 31.08625 43.95525 30.31313 44.54646 29.54001 C44.95185 29.00989 45.35724 28.47976 45.76263 27.94963 C46.0897 27.52192 46.41678 27.09421 46.74385 26.6665 C46.71598 26.63917 46.6881 26.61184 46.66023 26.5845 C45.10339 25.06171 43.54365 23.54192 41.98367 22.02234 C40.89687 20.96196 39.81176 19.89994 38.72876 18.83568 C36.54157 16.675 34.43083 14.43721 32.1958 12.32587 C31.25363 11.48358 30.29787 10.68521 29.29852 9.91156 C28.96301 9.67344 28.12283 9.03552 26.83555 8.26549 C25.59 7.58577 24.32628 6.99551 23.02694 6.42692 C22.11581 6.02784 21.21317 5.61975 20.31771 5.18661 C19.64784 4.83189 19.18488 4.59813 18.52883 4.14657 C18.52303 4.14459 18.51722 4.14262 18.51142 4.14064 C16.88404 3.58664 15.25666 3.03264 13.62929 2.47864 C12.5134 2.09876 11.39751 1.71888 10.28162 1.339 C9.4393 1.05225 8.59698 0.76551 7.75467 0.47876 C7.74704 0.47886 7.73941 0.47897 7.73179 0.47907 C6.98388 0.48934 6.23598 0.4996 5.48808 0.50987 C4.97525 0.5169 4.46241 0.52394 3.94958 0.53098 C3.56578 0.53625 3.18198 0.54152 2.79818 0.54678 L2.80182 0.81134 C3.01467 0.80842 3.22752 0.8055 3.44037 0.80257 C3.61132 0.80023 3.78226 0.79788 3.95321 0.79554 C4.46604 0.7885 4.97888 0.78146 5.49171 0.77442 C6.23961 0.76416 6.98751 0.75389 7.73542 0.74363 C9.45174 1.33821 8.63129 1.05668 10.19636 1.58947 C11.31225 1.96934 12.42814 2.34922 13.54402 2.7291 C14.65991 3.10898 15.77513 3.49086 16.89169 3.86874 C17.3922 4.03812 17.91262 4.15676 18.39388 4.37488 C19.02881 4.66265 19.58639 5.0987 20.20251 5.42479 C21.10103 5.85932 22.00668 6.26889 22.92088 6.66931 C24.97934 7.57003 25.97035 8.05622 26.6998 8.49259 C28.45004 9.60755 27.64115 9.05982 29.13657 10.12079 C30.12916 10.88896 31.07836 11.68179 32.01411 12.51821 C34.38631 14.75891 34.5123 15.01604 35.96292 16.46521 C37.78941 18.28223 36.9289 17.42955 38.54331 19.02439 C39.62659 20.08892 40.71198 21.15122 41.79906 22.21187 C43.33093 23.70408 44.86268 25.19637 46.39148 26.69174 C46.11181 27.05746 45.83213 27.42319 45.55246 27.78891 C45.14707 28.31904 44.74168 28.84917 44.33629 29.37929 C43.75708 30.13672 43.17787 30.89415 42.59866 31.65157 C42.01524 31.69531 41.43181 31.73905 40.84838 31.78278 C40.04245 31.84319 39.23652 31.90361 38.43059 31.96402 C37.25525 32.05213 36.0799 32.14024 34.90456 32.22834 C30.92708 30.97129 32.82034 31.56638 29.2253 30.44141 C26.67376 29.64298 24.12222 28.84455 21.57069 28.04611 C19.01932 27.24773 16.47175 26.43528 13.91607 25.65081 C10.41281 24.57547 11.22326 23.67487 10.32845 24.80539 C12.64648 28.82015 11.53136 26.91163 13.66859 30.53399 C15.18956 33.11186 16.71053 35.68973 18.23151 38.2676 C19.75248 40.84547 21.27346 43.42334 22.79443 46.00121 C23.49159 47.18282 24.18875 48.36443 24.88592 49.54604 C24.96187 49.50122 25.03783 49.4564 25.11379 49.41159 zM30.66636 49.79226 C27.09998 48.82276 23.53361 47.85326 19.96723 46.88376 L19.89782 47.13907 C21.01874 47.44379 22.13965 47.7485 23.26057 48.05322 C25.70603 48.718 28.15149 49.38279 30.59696 50.04758 C33.04242 50.71236 35.48788 51.37715 37.93334 52.04193 C41.06839 52.89418 43.33622 53.52081 43.43719 53.53739 C45.75707 53.91826 48.07695 54.29914 50.39682 54.68002 C51.98756 54.94118 53.5783 55.20235 55.16904 55.46351 C56.35952 55.65897 57.55 55.85442 58.74048 56.04987 C58.75477 55.96284 58.76905 55.87582 58.78334 55.78879 C58.12311 55.68039 57.46287 55.57199 56.80264 55.4636 C56.27239 55.37654 55.74215 55.28949 55.2119 55.20243 C53.62116 54.94126 52.03042 54.6801 50.43969 54.41893 C47.06555 53.86497 43.75316 53.34984 40.44821 52.45141 C39.63306 52.22981 38.8179 52.00821 38.00275 51.78662 C35.55729 51.12183 33.11182 50.45705 30.66636 49.79226 z" />
<glyph unicode="6" horiz-adv-x="56" d="M14.88718 24.02738 C14.39798 23.76397 13.90878 23.50055 13.41958 23.23714 L13.29414 23.4701 C13.4479 23.55289 13.60166 23.63568 13.75541 23.71847 C14.09086 23.89909 14.4263 24.07971 14.76175 24.26034 C15.09719 24.44096 15.43263 24.62158 15.76808 24.8022 C15.93235 24.89066 16.52773 25.21102 16.52907 25.21163 C17.78025 25.7953 19.026 26.38961 20.28534 26.95552 C21.11955 27.30684 21.95228 27.63072 22.80967 27.92081 C24.06722 28.29026 24.96906 28.44991 25.0223 28.45062 C25.83086 28.4364 26.5943 28.35585 27.38246 28.17348 C27.95039 28.01727 28.49075 27.82308 29.03397 27.59536 C29.50094 27.37445 29.85544 27.20271 30.32034 26.93352 C30.32483 26.9287 30.32932 26.92388 30.33381 26.91906 C30.70903 26.52364 31.09022 26.13658 31.42757 25.70797 C31.64067 25.40905 31.81026 25.10332 31.94877 24.76333 C32.18559 24.10003 32.29273 23.41463 32.35753 22.71367 C32.35363 22.70382 32.34973 22.69398 32.34583 22.68414 C31.84178 21.45465 31.34192 20.2534 30.70358 19.08863 C30.35392 18.51668 29.98504 17.9659 29.60155 17.41605 C28.50535 15.85994 28.48457 15.7964 28.41855 15.71819 C26.89153 13.97169 25.32547 12.28683 23.69377 10.63818 C22.5723 9.53244 21.44188 8.43715 20.30513 7.34712 C19.44765 6.52763 18.58802 5.7082 17.73504 4.88419 C17.72925 4.8812 17.72347 4.87822 17.71768 4.87523 C16.45981 4.15729 15.26376 3.37069 14.05516 2.57397 C13.31929 2.11363 12.5869 1.67738 11.81664 1.27796 C10.86287 0.83312 9.90923 0.46597 8.87353 0.25349 C8.86058 0.25926 8.84764 0.26503 8.83469 0.2708 C8.3596 0.48247 7.88451 0.69414 7.40942 0.90581 C7.08365 1.05096 6.75789 1.1961 6.43212 1.34124 C6.17025 1.45792 5.90838 1.57459 5.64651 1.69127 C5.6405 1.71013 5.63449 1.729 5.62849 1.74787 C5.43133 2.44786 5.3099 3.12958 5.23987 3.85362 C5.21088 4.36809 5.19994 4.87741 5.20313 5.39266 C5.21493 5.81877 5.22878 6.22244 5.2509 6.65096 C5.25237 6.65598 5.25385 6.661 5.25532 6.66602 C5.70771 8.46046 6.03567 10.25488 6.35675 12.07619 C6.55053 13.04253 6.76189 13.98724 7.02681 14.93609 C7.84713 17.47083 8.87328 19.08025 8.93789 19.16021 C11.88297 22.80488 14.82805 26.44956 17.77314 30.09424 C19.79258 32.59339 21.81202 35.09254 23.83146 37.5917 C25.34522 39.46504 26.85898 41.33839 28.37274 43.21174 C28.37574 43.21434 28.37874 43.21695 28.38174 43.21956 C31.3922 45.8349 34.40267 48.45024 37.41313 51.06558 C39.47741 52.85891 41.54168 54.65225 43.60595 56.44558 C45.15082 57.78768 46.69568 59.12979 48.24055 60.47189 C48.29839 60.40531 48.35623 60.33873 48.41407 60.27215 C47.55729 59.52783 46.70052 58.78351 45.84374 58.03918 C45.15565 57.44141 44.46756 56.84363 43.77947 56.24585 C41.7152 54.45251 39.65092 52.65918 37.58665 50.86584 C34.63157 48.29862 31.27735 45.85617 28.5712 43.03637 C26.9062 41.30145 25.54857 39.29573 24.03725 37.42541 C22.01781 34.92625 19.99837 32.4271 17.97893 29.92795 C15.95949 27.4288 13.94037 24.92938 11.92061 22.43049 C9.83658 19.8521 8.26913 17.91321 7.28163 14.86491 C7.01881 13.92445 6.80945 12.98812 6.61732 12.03025 C6.39483 10.76824 6.2111 9.49026 5.92511 8.24052 C5.67024 7.12683 5.4975 6.46252 5.46771 5.391 C5.46447 4.88482 5.47497 4.38444 5.50322 3.87903 C5.56909 3.19458 5.67877 2.54539 5.865 1.88357 C6.08993 1.78335 6.31486 1.68314 6.5398 1.58292 C6.86556 1.43778 7.19133 1.29263 7.5171 1.14749 C7.97836 0.94198 8.43962 0.73647 8.90088 0.53096 C9.88325 0.777 10.77731 1.08534 11.69489 1.51286 C12.45708 1.90776 13.18146 2.33948 13.90954 2.79487 C14.74817 3.3477 15.57389 3.93314 16.43639 4.44855 C16.80761 4.67038 17.22517 4.8208 17.5652 5.08798 C18.49335 5.8173 19.26865 6.72253 20.12201 7.53809 C21.2571 8.62652 22.38588 9.72019 23.50572 10.8243 C25.62137 12.96183 27.65051 15.1059 29.38454 17.56742 C29.76263 18.10941 30.12664 18.65219 30.47159 19.21583 C30.84921 19.90421 31.18996 20.5984 31.50071 21.32021 C31.70106 21.78557 31.97429 22.22782 32.09116 22.72081 C32.14721 22.95724 32.03744 23.20384 32.00434 23.44456 C31.94707 23.86112 31.8443 24.2681 31.70367 24.66369 C31.5751 24.98067 31.41768 25.26563 31.21956 25.54446 C31.02256 25.79538 30.81212 26.02644 30.59441 26.26006 C30.45323 26.41157 30.3377 26.59197 30.1707 26.71444 C29.93668 26.88605 29.24785 27.20159 28.93161 27.35138 C28.40242 27.57354 27.87604 27.76319 27.32274 27.91573 C26.55561 28.09371 25.81293 28.17207 25.02582 28.18606 C24.29867 28.04305 23.6048 27.87863 22.89443 27.67018 C22.04503 27.38303 21.22019 27.06214 20.39378 26.71419 C18.99879 26.08736 17.57529 25.47481 16.22896 24.74987 C16.11715 24.68966 16.00533 24.62946 15.89352 24.56925 C15.55807 24.38863 15.22263 24.208 14.88718 24.02738 z" />
<glyph unicode="7" horiz-adv-x="56" d="M13.35013 9.92517 C11.52807 6.67151 9.70602 3.41784 7.88396 0.16417 L7.65312 0.29345 C8.66362 2.09792 9.67412 3.90238 10.68462 5.70685 C11.49617 7.15605 12.30773 8.60525 13.11928 10.05445 C15.55393 14.40204 17.98859 18.74964 20.42324 23.09723 C23.97714 29.44348 27.53104 35.78973 31.08494 42.13598 C31.08967 42.14052 31.0944 42.14506 31.09913 42.1496 C31.91255 42.93048 32.72597 43.71136 33.53939 44.49225 C34.62629 45.53567 35.71319 46.57909 36.80009 47.62252 C38.38959 49.14844 39.97909 50.67437 41.5686 52.20029 C41.57394 52.20315 41.57928 52.20601 41.58462 52.20887 C42.36665 52.62792 43.14868 53.04697 43.93071 53.46602 C44.97568 54.02596 46.02064 54.58589 47.0656 55.14583 C48.37516 55.84755 49.68472 56.54927 50.99428 57.25099 C47.57917 56.79322 44.16406 56.33545 40.74894 55.87768 C35.86346 55.22282 30.97798 54.56795 26.0925 53.91309 C18.96768 52.95806 11.84286 52.00303 4.71805 51.04801 L4.68289 51.31024 C6.92223 51.61041 9.16157 51.91057 11.40091 52.21074 C16.28639 52.8656 21.17187 53.52046 26.05735 54.17533 C30.94283 54.83019 35.82831 55.48505 40.71379 56.13991 C44.43451 56.63865 48.15523 57.13738 51.87595 57.63612 C51.89547 57.57562 51.91499 57.51513 51.93451 57.45464 C51.87713 57.42389 51.81976 57.39315 51.76238 57.3624 C50.23844 56.54581 48.71451 55.72921 47.19057 54.91262 C46.1456 54.35268 45.10064 53.79275 44.05568 53.23281 C43.28409 52.81936 42.43456 52.52773 41.73861 51.99674 C41.18956 51.57782 40.74222 51.0402 40.24402 50.56193 C39.15712 49.5185 38.07022 48.47508 36.98332 47.43165 C35.89642 46.38823 34.80952 45.34481 33.72262 44.30138 C32.91835 43.52928 31.91054 42.92584 31.30594 41.98911 C28.30024 37.33231 25.80092 32.15873 23.08874 27.31556 C22.27719 25.86636 21.46564 24.41716 20.65409 22.96796 C18.21943 18.62036 15.78478 14.27277 13.35013 9.92517 z" />
<glyph unicode="8" horiz-adv-x="56" d="M24.48029 20.4368 C23.5577 22.13318 22.63511 23.82956 21.71251 25.52594 C21.68869 25.56975 21.66487 25.61355 21.64104 25.65735 C21.61641 25.6288 21.59177 25.60025 21.56714 25.5717 C18.5842 22.11485 15.38247 18.86177 12.99802 14.95993 C12.67065 14.42423 12.34328 13.88852 12.01591 13.35282 C11.77389 12.95678 11.49879 12.57924 11.28889 12.16527 C10.7123 11.02807 10.24449 9.81539 9.7264 8.64968 C9.36926 7.84613 9.01213 7.04258 8.655 6.23903 C8.39672 5.65791 8.13843 5.07678 7.88015 4.49565 C8.25993 3.82049 8.63971 3.14533 9.01949 2.47017 C9.28734 1.994 9.55519 1.51782 9.82304 1.04164 C10.00884 0.71132 10.19465 0.381 10.38046 0.05068 C11.65295 0.22034 12.92544 0.39001 14.19792 0.55967 C15.09076 0.67872 15.98359 0.79776 16.87642 0.91681 C17.53042 1.00401 18.20964 0.97436 18.83935 1.17131 C19.21781 1.28968 19.54871 1.52599 19.90338 1.70332 C20.67717 2.09022 21.45095 2.47711 22.22474 2.864 C22.99852 3.25089 23.77231 3.63778 24.5461 4.02467 C25.10762 4.30543 25.66914 4.5862 26.23066 4.86696 C26.57267 6.10672 26.91468 7.34649 27.25668 8.58626 C27.49477 9.44933 27.73287 10.31241 27.97096 11.17548 C28.05032 11.46317 28.12968 11.75086 28.20905 12.03855 C28.30313 12.37961 28.39722 12.72067 28.4913 13.06172 C27.1543 15.52008 25.8173 17.97844 24.48029 20.4368 zM24.71272 20.56321 C26.06673 18.07358 27.42075 15.58395 28.77476 13.09432 C28.77002 13.07716 28.76529 13.06 28.76056 13.04284 C28.58237 12.39693 28.40419 11.75102 28.22601 11.10512 C27.98792 10.24205 27.74983 9.37897 27.51174 8.5159 C27.15928 7.23827 26.80683 5.96064 26.45438 4.683 C26.43681 4.67422 26.41925 4.66544 26.40168 4.65666 C25.82259 4.36711 25.24351 4.07757 24.66442 3.78803 C23.89063 3.40114 23.11685 3.01424 22.34306 2.62735 C21.20799 2.05982 20.07291 1.49228 18.93783 0.92474 C18.93053 0.92377 18.92323 0.92279 18.91592 0.92182 C18.24774 0.83273 17.57957 0.74364 16.91139 0.65455 C16.01855 0.5355 15.12572 0.41646 14.23289 0.29741 C12.90118 0.11985 11.56946 -0.05771 10.23774 -0.23528 C10.22309 -0.20924 10.20845 -0.1832 10.1938 -0.15716 C9.99334 0.19921 9.79289 0.55557 9.59244 0.91193 C9.32459 1.38811 9.05674 1.86428 8.78889 2.34046 C8.3874 3.05421 7.98591 3.76796 7.58443 4.48171 C7.59342 4.50194 7.60241 4.52218 7.6114 4.54241 C7.87867 5.14377 8.14595 5.74513 8.41322 6.34649 C8.77035 7.15004 9.12749 7.95359 9.48462 8.75713 C9.82387 9.52044 11.05366 12.28561 11.05516 12.28806 C11.30016 12.68897 11.54516 13.08988 11.79015 13.49079 C12.11752 14.02649 12.44489 14.56219 12.77226 15.09789 C13.25158 15.88223 13.7309 16.66658 14.21022 17.45092 C14.21258 17.45366 14.21493 17.45639 14.21729 17.45913 C16.60047 20.22093 18.98365 22.98274 21.36682 25.74455 C21.47478 25.86966 21.45957 25.85203 21.50594 25.90577 C20.88903 27.04008 20.34413 28.21638 19.65813 29.31029 C19.49382 29.57231 19.24889 29.7741 19.04426 30.00601 C18.59785 30.51195 18.15143 31.01788 17.70502 31.52382 C17.2586 32.02976 16.81218 32.5357 16.36577 33.04164 C16.02133 33.43199 15.6769 33.82235 15.33247 34.21271 C15.33182 34.22835 15.33116 34.24399 15.33051 34.25963 C15.28711 35.30129 15.24371 36.34295 15.20031 37.38461 C15.17055 38.09887 15.14079 38.81314 15.11103 39.5274 C15.0881 40.07785 15.06516 40.62829 15.04223 41.17874 C15.05189 41.19142 15.06155 41.20409 15.07121 41.21677 C15.76565 42.12822 16.46009 43.03968 17.15453 43.95113 C17.6307 44.57611 18.10688 45.20109 18.58306 45.82607 C18.9422 46.29744 19.30134 46.76882 19.66048 47.24019 C19.66398 47.24321 19.66747 47.24623 19.67097 47.24924 C20.62582 48.07389 21.58067 48.89854 22.53553 49.72319 C23.19027 50.28865 23.84501 50.85411 24.49976 51.41957 C25.00003 51.85162 25.50031 52.28368 26.00059 52.71574 C26.0141 52.7173 26.02762 52.71886 26.04113 52.72042 C27.1696 52.85062 28.29806 52.98083 29.42653 53.11104 C30.20032 53.20033 30.97411 53.28961 31.7479 53.37889 C32.35012 53.44838 32.95234 53.51787 33.55455 53.58735 C33.56982 53.56975 33.58508 53.55214 33.60034 53.53453 C34.16457 52.88349 34.7288 52.23245 35.29303 51.58142 C35.67992 51.135 36.06681 50.68859 36.4537 50.24217 C36.74324 49.90808 37.03279 49.57399 37.32233 49.2399 L37.12239 49.06662 C36.96181 49.2519 36.80123 49.43719 36.64065 49.62247 C36.51169 49.77128 36.38272 49.92008 36.25376 50.06889 C35.86687 50.5153 35.47998 50.96172 35.09309 51.40814 C34.54409 52.04159 33.9951 52.67505 33.44611 53.30851 C33.14807 53.27412 32.85004 53.23973 32.55201 53.20534 C32.29408 53.17558 32.03615 53.14582 31.77822 53.11606 C31.00444 53.02677 30.23065 52.93749 29.45686 52.84821 C28.34186 52.71955 27.22686 52.5909 26.11185 52.46224 C25.63213 52.04794 25.15241 51.63363 24.67269 51.21933 C24.01795 50.65387 23.36321 50.08841 22.70846 49.52295 C21.77744 48.71888 20.71306 47.95472 19.8626 47.0689 C19.45536 46.64473 19.14987 46.13345 18.79351 45.66572 C18.31733 45.04074 17.84116 44.41576 17.36498 43.79078 C16.68017 42.89197 15.99536 41.99316 15.31055 41.09434 C15.33216 40.5757 15.35377 40.05706 15.37538 39.53842 C15.40514 38.82415 15.4349 38.10989 15.46466 37.39562 C15.50741 36.36956 15.55016 35.3435 15.59291 34.31743 C15.91666 33.95052 16.24041 33.5836 16.56416 33.21669 C17.01057 32.71075 17.45699 32.20481 17.90341 31.69887 C18.55775 30.95728 19.2121 30.21569 19.86645 29.4741 C19.86883 29.46972 19.87121 29.46535 19.87358 29.46097 C20.47928 28.34727 21.08498 27.23357 21.69068 26.11986 C24.76716 29.68513 27.84364 33.25039 30.92013 36.81566 C34.10425 40.50567 37.26495 44.21793 40.47343 47.88676 C44.9801 53.04005 45.66955 50.9369 44.29737 54.0243 C44.05928 54.56 43.82119 55.0957 43.5831 55.63139 C43.24425 56.39382 42.90539 57.15625 42.56653 57.91868 C42.11861 58.04666 41.6707 58.17463 41.22278 58.30261 C40.5978 58.48117 39.97281 58.65974 39.34783 58.83831 C38.44837 59.09529 37.54891 59.35228 36.64946 59.60927 C35.94877 59.4122 35.24808 59.21513 34.54739 59.01806 C33.59503 58.75021 32.64268 58.48237 31.69033 58.21452 C30.31179 57.8268 28.93325 57.43909 27.5547 57.05138 C27.20619 56.72465 26.85769 56.39793 26.50918 56.0712 C26.033 55.62478 25.55682 55.17837 25.08064 54.73195 C24.40068 54.09449 23.6501 53.48442 23.01686 52.80193 C22.853 52.62532 22.74959 52.40102 22.61596 52.20057 C22.43739 51.93272 22.25883 51.66487 22.08026 51.39702 C21.81985 51.00639 21.55943 50.61577 21.29902 50.22514 L21.07887 50.37191 C21.16072 50.49468 21.24257 50.61745 21.32442 50.74023 C21.50299 51.00808 21.68155 51.27593 21.86012 51.54378 C22.03868 51.81163 22.21725 52.07948 22.39581 52.34733 C22.53227 52.55201 22.66872 52.7567 22.80518 52.96139 C22.80891 52.96488 22.81263 52.96837 22.81636 52.97186 C23.5108 53.6229 24.20524 54.27394 24.89968 54.92497 C25.37586 55.37139 25.85204 55.81781 26.32822 56.26422 C26.69244 56.60568 27.05666 56.94713 27.42088 57.28858 C27.43127 57.29151 27.44167 57.29443 27.45206 57.29735 C28.84094 57.68798 30.22982 58.0786 31.6187 58.46922 C32.57105 58.73706 33.5234 59.00491 34.47575 59.27276 C35.20051 59.4766 35.92527 59.68044 36.65002 59.88427 C36.66206 59.88083 36.6741 59.87739 36.68614 59.87395 C37.5976 59.61354 38.50906 59.35312 39.42051 59.09271 C40.0455 58.91414 40.67048 58.73557 41.29547 58.55701 C41.78301 58.41771 42.27055 58.27841 42.75809 58.13912 C42.76647 58.12027 42.77484 58.10142 42.78322 58.08258 C43.13044 57.30133 43.47766 56.52009 43.82488 55.73885 C44.06297 55.20315 44.30106 54.66746 44.53914 54.13176 C44.72868 53.7053 44.91822 53.27885 45.10775 52.85239 C45.08939 52.8311 45.07102 52.80982 45.05265 52.78853 C40.40858 47.40662 35.76451 42.02471 31.12044 36.64281 C28.02222 33.05235 24.924 29.4619 21.82579 25.87145 L21.94494 25.65235 C22.86754 23.95597 23.79013 22.25959 24.71272 20.56321 z" />
<glyph unicode="9" horiz-adv-x="56" d="M23.23417 34.93425 C24.49735 35.51963 25.76053 36.10501 27.02371 36.69038 C28.63954 37.43918 30.25536 38.18797 31.87118 38.93677 C33.36768 42.73101 34.86151 46.5263 36.36067 50.31949 C39.17217 57.43315 39.76485 55.79748 39.649 59.23137 C39.64063 59.47935 39.63227 59.72734 39.6239 59.97533 C39.61246 60.31435 39.60102 60.65338 39.58959 60.9924 C39.43551 61.09512 39.28142 61.19785 39.12734 61.30057 C38.89627 61.45462 38.6652 61.60866 38.43413 61.76271 C38.1127 61.977 37.79126 62.19129 37.46983 62.40558 C36.95779 62.29427 36.44574 62.18295 35.9337 62.07164 C35.22509 61.91759 34.51647 61.76354 33.80786 61.6095 C32.8084 61.39222 31.69853 61.26941 30.73178 60.94328 C29.95866 60.68248 29.23306 60.29769 28.4837 59.97489 C27.4824 59.54356 26.4811 59.11223 25.4798 58.6809 C24.47853 58.24959 23.47881 57.81438 22.47589 57.38691 C22.03141 57.19747 21.53498 57.10187 21.14082 56.82242 C20.26962 56.20477 19.64211 55.30065 18.89275 54.53976 C17.89145 53.52305 16.89014 52.50635 15.88884 51.48964 C14.44011 50.01862 12.99137 48.54759 11.54264 47.07657 C11.50908 46.53965 11.47552 46.00273 11.44196 45.46581 C11.39575 44.72638 11.34953 43.98696 11.30332 43.24754 C11.23666 42.18102 11.17 41.1145 11.10334 40.04798 C11.30555 39.64357 11.50775 39.23916 11.70996 38.83476 C11.98724 38.28019 12.26453 37.72562 12.54181 37.17105 C12.93625 36.38218 13.33068 35.59331 13.72512 34.80444 C14.2335 34.71603 14.74189 34.62761 15.25027 34.5392 C15.95888 34.41596 16.66749 34.29273 17.37611 34.16949 C18.08472 34.04625 18.79333 33.92301 19.50195 33.79978 C19.81319 33.74565 20.12443 33.69152 20.43567 33.63739 C21.3685 34.06968 22.30134 34.50197 23.23417 34.93425 zM27.13496 36.45033 C25.87178 35.86495 24.6086 35.27957 23.34541 34.6942 C22.38756 34.25032 21.4297 33.80643 20.47185 33.36255 C20.45824 33.36491 20.44463 33.36728 20.43103 33.36965 C19.39761 33.54937 18.36419 33.7291 17.33077 33.90882 C16.62216 34.03206 15.91355 34.15529 15.20493 34.27853 C14.65269 34.37457 14.10045 34.47062 13.5482 34.56666 C13.53824 34.58659 13.52827 34.60651 13.51831 34.62644 C13.11393 35.4352 12.70955 36.24397 12.30516 37.05273 C12.02788 37.6073 11.7506 38.16186 11.47331 38.71643 C11.26049 39.14208 11.04766 39.56773 10.83484 39.99338 C10.83558 40.00525 10.83632 40.01713 10.83706 40.029 C10.90446 41.10735 10.97186 42.1857 11.03926 43.26405 C11.08547 44.00347 11.13168 44.74289 11.1779 45.48231 C11.21351 46.05213 11.24913 46.62195 11.28474 47.19177 C11.29634 47.20354 11.30794 47.21532 11.31953 47.22709 C12.7798 48.70983 14.24006 50.19256 15.70033 51.67529 C16.70163 52.692 17.70294 53.70871 18.70424 54.72542 C19.45965 55.49245 20.21506 56.25948 20.97047 57.02651 C20.97842 57.02994 20.98638 57.03336 20.99433 57.03679 C22.45459 57.66582 23.91486 58.29486 25.37512 58.92389 C26.37643 59.35522 27.37773 59.78655 28.37903 60.21788 C29.1323 60.54236 29.88557 60.86685 30.63884 61.19133 C30.64303 61.19224 30.64722 61.19316 30.65141 61.19407 C31.68482 61.41872 32.71824 61.64338 33.75166 61.86804 C34.46027 62.02209 35.16888 62.17613 35.8775 62.33018 C36.42608 62.44944 36.97467 62.5687 37.52325 62.68796 C37.53881 62.67758 37.55438 62.6672 37.56994 62.65683 C37.90693 62.43217 38.24391 62.20751 38.5809 61.98285 C38.81197 61.82881 39.04304 61.67476 39.27411 61.52071 C39.46588 61.39286 39.65766 61.26501 39.84943 61.13716 C39.8502 61.11451 39.85096 61.09186 39.85173 61.06922 C39.86393 60.70756 39.87613 60.34591 39.88833 59.98425 C39.8967 59.73626 39.90506 59.48828 39.91343 59.24029 C39.92 59.04555 39.92657 58.85081 39.93314 58.65607 C39.9297 58.64736 39.92627 58.63865 39.92283 58.62993 C36.406 49.7133 32.88916 40.79667 29.37233 31.88003 C26.96084 25.7659 24.54935 19.65178 22.13786 13.53765 C20.33314 8.96194 18.52842 4.38623 16.7237 -0.18948 L16.47758 -0.0924 C17.47846 2.44526 18.47935 4.98293 19.48024 7.5206 C20.28407 9.55864 21.0879 11.59668 21.89173 13.63472 C24.30322 19.74885 26.71471 25.86298 29.1262 31.97711 C29.93003 34.01515 30.73386 36.05319 31.53769 38.09123 C31.60194 38.25414 31.66619 38.41704 31.73044 38.57994 C30.19861 37.87007 28.66679 37.1602 27.13496 36.45033 z" />
<glyph unicode=":" horiz-adv-x="56" d="M29.61744 41.16482 Q29.32642 41.04428 29.03371 41.04428 Q28.741 41.04428 28.44998 41.16481 Q28.15897 41.28535 27.95199 41.49234 Q27.74502 41.69932 27.62447 41.99033 Q27.50393 42.28134 27.50393 42.57405 Q27.50393 42.86677 27.62447 43.15778 Q27.74501 43.44879 27.95199 43.65577 Q28.15897 43.86275 28.44998 43.98329 Q28.741 44.10383 29.03371 44.10383 Q29.32642 44.10383 29.61743 43.98329 Q29.90844 43.86275 30.11542 43.65577 Q30.3224 43.44879 30.44294 43.15778 Q30.56348 42.86677 30.56348 42.57405 Q30.56348 42.28134 30.44294 41.99033 Q30.3224 41.69932 30.11542 41.49234 Q29.90845 41.28536 29.61744 41.16482 zM30.45467 13.10345 Q30.07421 12.94586 29.69152 12.94586 Q29.30884 12.94586 28.92837 13.10345 Q28.54791 13.26105 28.27731 13.53165 Q28.00671 13.80225 27.84911 14.18272 Q27.69152 14.56318 27.69152 14.94586 Q27.69152 15.32855 27.84911 15.70902 Q28.0067 16.08948 28.27731 16.36008 Q28.54791 16.63067 28.92837 16.78827 Q29.30884 16.94586 29.69152 16.94586 Q30.07421 16.94586 30.45468 16.78827 Q30.83515 16.63068 31.10574 16.36008 Q31.37633 16.08948 31.53392 15.70902 Q31.69152 15.32855 31.69152 14.94586 Q31.69152 14.56318 31.53392 14.18272 Q31.37633 13.80225 31.10574 13.53165 Q30.83514 13.26105 30.45467 13.10345 z" />
<glyph unicode=";" horiz-adv-x="56" d="M30.26672 41.9533 Q29.88626 41.79571 29.50358 41.79571 Q29.12089 41.79571 28.74043 41.95331 Q28.35997 42.1109 28.08936 42.3815 Q27.81876 42.65209 27.66117 43.03256 Q27.50358 43.41303 27.50358 43.79571 Q27.50358 44.17839 27.66117 44.55885 Q27.81876 44.93932 28.08936 45.20992 Q28.35996 45.48052 28.74042 45.63812 Q29.12089 45.79571 29.50358 45.79571 Q29.88626 45.79571 30.26672 45.63811 Q30.64718 45.48052 30.91779 45.20992 Q31.18839 44.93933 31.34599 44.55886 Q31.50358 44.17839 31.50358 43.79571 Q31.50358 43.41303 31.34599 43.03256 Q31.18839 42.65209 30.91779 42.3815 Q30.64719 42.1109 30.26672 41.9533 zM30.06742 23.02758 C30.06742 19.41233 25.67758 12.36608 21.9857 11.75077 " />
<glyph unicode="&#x3c;" horiz-adv-x="56" d="M46.51277 18.79877 C46.51277 18.79877 37.18935 22.52669 32.32278 23.68539 C28.51279 24.59253 15.16247 24.17557 13.34014 27.82022 C12.74911 29.00228 15.54113 29.29661 16.72319 29.88764 C21.60586 32.32898 25.83354 36.7058 29.97344 40.22472 C31.12523 41.20374 41.4382 47.38114 41.4382 49.34014 " />
<glyph unicode="=" horiz-adv-x="56" d="M16.53524 30.54545 C23.20553 30.54545 29.87747 30.45148 36.55158 30.45148 M17.381 22.83963 C17.381 22.83042 23.83329 21.8999 43.69356 21.8999 " />
<glyph unicode="&#x3e;" horiz-adv-x="56" d="M14.46782 43.88968 C17.7943 43.88968 46.93959 26.07777 49.05005 23.96731 C49.08138 23.93599 49.14402 23.91764 49.14402 23.87334 C49.14402 22.2483 37.79639 18.64213 36.64556 18.14096 C31.56818 15.92984 26.12324 13.87276 21.60981 10.62308 C20.59743 9.89417 18.69663 8.27375 18.69663 8.27375 " />
<glyph unicode="?" horiz-adv-x="56" d="M11.27273 43.79571 C8.94358 43.79571 11.33817 56.78514 12.30644 57.89173 C22.08632 69.06874 30.53728 45.13859 30.53728 38.81512 C30.53728 38.81512 30.24948 35.40561 29.87947 33.74055 C27.74565 24.13836 19.91828 22.85956 19.91828 12.50255 C19.91828 12.50255 19.91828 10.34116 19.91828 10.34116 " />
<glyph unicode="@" horiz-adv-x="56" d="M51.30541 8.36772 C51.30541 -1.46761 30.33849 -3.70972 23.58325 -2.72114 C0.71686 0.62516 3.09983 31.87615 14.5618 45.48723 C32.07521 66.28441 62.60223 19.4381 44.6333 14.94586 C41.64229 14.94586 38.14913 22.81443 38.14913 25.28294 C38.14913 26.60043 40.28698 23.09783 40.0286 21.80592 C39.38962 18.61101 33.21939 13.78582 30.06742 15.79162 C22.40062 20.67049 32.51031 27.35036 37.39734 27.35036 " />
<glyph unicode="A" horiz-adv-x="48.3667" d="M45.74424 24.51173 C42.31357 21.08106 35.64205 19.35261 31.04481 17.8202 C14.3667 9.97906 -13.6333 21.97906 31.3739 20.45293 C38.3667 19.97906 48.3667 -0.02094 44.3667 7.97906 C30.3667 49.97906 27.22089 74.54374 23.56201 63.065 C19.22089 48.54374 16.39957 33.69724 10.31203 18.47838 C2.3667 3.97906 1.29639 0.85797 0.22217 -0.02094 " />
<glyph unicode="B" horiz-adv-x="39.06231" d="M1.98366 71.51788 C7.94285 59.59949 8.18946 47.57411 11.94484 35.05618 C11.94484 24.9022 10.12747 16.82368 7.05822 7.61593 C5.14107 4.7402 0.48008 -4.63994 0.48008 3.857 C0.48008 21.57802 7.05822 39.71425 7.05822 57.51583 C7.05822 57.51583 7.38946 59.98335 7.71604 61.1808 C9.28265 66.92503 13.87606 73.02145 20.40245 73.02145 C23.35805 73.02145 33.93463 73.12314 33.93463 68.2288 C41.02448 61.13895 39.83263 41.98789 33.08887 35.24413 C30.37004 28.44706 19.71643 27.9142 14.10623 27.9142 C14.10623 34.57991 15.88387 33.27068 22.84576 33.27068 C27.44622 33.27068 33.97583 27.09159 35.06231 22.74566 C38.35381 16.16265 36.28981 8.56151 31.49132 3.76302 C24.92651 0.48062 14.41096 -5.27363 7.05822 -0.37181 C5.56469 0.37496 2.78859 0.62494 2.45352 2.63534 " />
<glyph unicode="C" horiz-adv-x="55.23187" d="M-0.00409 0.28601 C-0.00409 -0.30561 1.78823 0.7123 1.87538 0.75587 C6.01637 2.82637 7.77747 8.85075 9.01736 13.06639 C11.89347 22.84516 12.04764 34.85594 17.75689 43.41982 C22.84298 52.32047 27.16027 58.86681 35.70582 64.56384 C37.43191 65.71457 40.13672 66.67828 42.37794 67.10112 C45.2495 67.10112 49.67068 68.17594 52.24515 66.63126 C53.37558 65.95299 36.92499 68.53108 19.91828 47.27273 C12.81213 38.98222 11.71875 23.22125 11.46067 11.46885 C13.08594 5.64312 24.31818 0.47395 29.4096 0.47395 C37.08455 0.47395 40.82031 -1.77875 51.96323 2.35342 C53.80859 3.0064 54.43122 3.34253 55.2523 4.98468 " />
<glyph unicode="D" horiz-adv-x="49.1236" d="M11.83657 71.14198 C12.04514 71.35056 12.02178 71.14746 12.11849 70.95403 C13.92482 67.34137 13.43412 60.48345 13.43412 56.48212 C13.43412 22.02107 7.17013 5.51765 1.78141 2.82329 C0.19129 -0.35695 0.37181 3.9877 0.37181 5.45455 C0.37181 12.55303 2.29301 21.81972 4.31869 28.57201 C4.57848 29.43796 4.9765 31.20326 4.97651 31.20327 C11.23676 52.07079 14 71.97906 28.75179 71.51788 C58 67.97906 52 7.97906 23.14453 0.95562 C18.55469 0.36968 3.44848 -0.63739 1.26953 1.54156 " />
<glyph unicode="E" horiz-adv-x="36.79877" d="M1.17578 63.9439 C3.42188 60.62359 5.86186 59.16726 8.21246 58.83146 C16.08009 57.70751 24.32031 56.91265 32.03516 60.62359 C35.74609 64.13922 34.67864 66.56315 33.89062 67.26422 C31.49282 69.39745 22.36719 70.58453 17.875 69.315 C12.11328 66.67828 8.40234 60.42828 7.27273 57.79775 C5.57031 44.21734 5.04242 32.143 19.86517 32.143 C24.79535 30.91046 32.35461 32.64653 31.9375 34.64703 C31.54095 36.54891 23.41258 38.75634 18.64351 36.37181 C5.70947 26.02457 -3.86245 15.61597 4.49609 4.47125 C12.51849 -1.54555 26.40641 -0.02094 36 -0.02094 " />
<glyph unicode="F" horiz-adv-x="51.8284" d="M3.95199 60.33504 C2.79959 60.33504 2.35493 60.89839 1.60265 61.65066 C-3.6722 66.92552 10.29285 69.45046 13.44331 69.45046 C22.58807 69.45046 35.0353 64.31796 43.60878 68.6047 C49.05202 74.04794 51.12666 34.22094 51.12666 28.57201 C51.12666 18.76368 49.70836 13.80659 44.07865 6.30031 C43.20253 5.13214 40.50767 3.76303 40.50766 3.76302 C34.59806 -0.96466 19.90219 -4.04583 14.75893 3.66905 C14.32078 4.54535 13.16139 6.83057 13.16139 7.80388 M34.77528 39.84883 C43.38403 39.84883 50.74867 32.28291 59.86619 36.84167 C59.86619 37.10827 60.24208 37.11119 60.24208 37.31154 " />
<glyph unicode="G" horiz-adv-x="50" d="M0 -0.02094 C0 0.67526 5.98561 6.83397 7.0144 7.74845 C17.15195 16.75961 30.68315 28.76003 30.68315 43.54597 C30.68315 52.89624 26.37109 64.43218 12.90215 59.08963 C0.91805 51.89917 -1.07031 26.15094 3.24624 10.57457 C8.20703 2.81109 9.57422 1.83453 15.375 0.68315 C24.1934 -0.78658 37.11328 2.42047 43.16518 13.51844 C45.81789 16.17115 46.58008 23.26337 46.58008 26.58925 C46.58008 27.80605 46.58008 24.15564 46.58008 22.93884 C46.58008 20.72482 46.46232 18.54896 46.46232 16.34456 C46.46232 -3.39028 20 -39.42727 11.85293 -41.13562 C4 -41.66127 16.34143 -18.41616 25.73744 -12.15215 C25.73744 -12.15215 28.41775 -10.52143 29.74111 -9.67929 C35.69272 -5.89191 43.18202 -2.13084 49.80469 0.07672 " />
<glyph unicode="H" horiz-adv-x="50" d="M1.19101 48.21246 C1.19101 48.30798 4.52848 50.15172 4.94995 50.46782 C7.12358 52.09805 9.33297 56.71666 10.40041 59.20735 C11.34206 61.40454 16.08196 75.97007 14.34729 70.76609 C14.34729 57.4961 14 -0.02094 0.90909 -0.18386 M49.02349 0.19203 C41.01368 0.19203 42.72727 13.30525 42.72727 34.77426 C42.72727 62.9742 48 81.97906 47.70787 67.28907 C46 23.97906 14.95602 35.71399 3.54035 35.71399 " />
<glyph unicode="I" horiz-adv-x="24" d="M8.68437 47.83657 C-6.92956 41.591 7.66024 60.30982 9.53013 63.24821 C13.13874 68.91888 13.07483 73.72455 11.97344 63.81205 C11.97344 46.03525 20.87049 29.3753 22.31052 11.37487 C23.69267 -5.90197 4.82548 0.71387 0.60266 4.23289 " />
<glyph unicode="J" horiz-adv-x="28" d="M27.92969 -0.1186 C4.64413 -17.01428 -8.39844 -54.1225 8 -45.0963 C18.26172 -36.73969 20 23.97906 22 43.97906 C22 53.97906 26 69.97906 20 59.97906 C12 41.97906 2.78611 35.05493 2.78611 15.74036 C3.22266 6.1314 11.02732 -2.90572 17.96875 0.565 " />
<glyph unicode="K" horiz-adv-x="56" d="M17.09908 72.36364 C17.09908 72.36364 17.09908 70.73476 17.09908 69.92033 C17.09908 45.63378 17.08309 17.18524 -0.09806 0.00409 M54.40654 70.76609 C40.0614 65.98438 34.78052 25.28294 15.21961 25.28294 C8.02212 25.28294 12.6621 43.72702 24.71093 28.66599 C30.74356 18.6116 35.9375 2.51812 46.58203 0.95562 C48.82812 0.46734 51.36719 0.17437 54.88281 0.46734 " />
<glyph unicode="L" horiz-adv-x="52" d="M50 -0.02094 C34 -0.02094 17.95366 3.27547 11.52809 6.48825 C9.05923 6.48825 3.86608 10.50494 1.46484 7.30328 C-0.7029 4.41296 3.22372 -0.74771 6.05469 -0.1186 C35.2498 6.36855 9.05091 50.44051 12.79297 65.40875 C15.60962 75.26699 31.27696 59.25389 1.75781 57.20562 " />
<glyph unicode="M" horiz-adv-x="44" d="M-0.09806 0.09806 C16.21658 16.4127 10.54097 41.22492 14 61.97906 C16.3656 71.44146 18 69.97906 18.97855 54.03881 C20 27.97906 28 13.97906 38 63.97906 C40 83.97906 40.68641 24.62154 40.68641 23.68539 C40.68641 3.90421 40.30439 -0.51583 44 -0.02094 " />
<glyph unicode="N" horiz-adv-x="36.02043" d="M35.51379 67.57099 C35.51379 67.57099 34.1388 66.5719 33.54035 65.97344 C30.14075 62.57385 29.89199 56.74949 29.21757 52.25332 C27.3742 39.96418 28.02043 31.97906 23.95506 14.56997 C15.72266 -41.81781 10.43237 84.2449 8.02043 59.97906 C6.53638 45.04843 -0.09766 -2.1186 -0.09766 -0.1186 " />
<glyph unicode="O" horiz-adv-x="57.64045" d="M0.68483 4.61175 C0.68483 19.54584 -0.83453 35.32903 5.47748 49.53106 C6.83169 52.57803 11.66294 56.04207 12.33754 58.74045 C19.85827 63.75428 36.16405 67.14683 43.6307 59.68019 C47.33955 55.97134 37.75762 63.15721 32.35388 63.15721 C22.30479 63.15721 11.70179 57.65689 7.07503 48.40337 C2.22371 33.84943 2.59451 9.3423 18.63376 1.32268 C27.70618 -1.70146 33.84537 -0.89985 41.75553 5.05718 C44.68522 7.59625 47.51725 11.79547 51.13053 17.55718 C53.2534 29.5992 55.49549 35.65661 50.02089 49.34311 C46.0524 57.88922 44.49669 62.59336 35.26706 62.59336 C28.24036 62.59336 24.55409 59.35861 24.55409 52.53821 C24.76334 43.33844 54.19281 42.13878 57.6735 49.10015 " />
<glyph unicode="P" horiz-adv-x="42.87947" d="M11.44127 40.41267 C25.90593 25.94801 47.43859 47.82011 41.51277 65.59755 C35.55818 74.52944 20.0836 72.26644 13.60266 65.7855 C9.35223 61.53507 7.79786 55.61169 5.33299 50.37385 C0.16009 39.38143 0.91624 26.06006 0.91624 14.19408 C0.91624 -4.46654 5.79401 -5.60414 10.87947 11.97906 C14.87947 37.97906 13.31052 57.8907 12.87947 63.97906 " />
<glyph unicode="Q" horiz-adv-x="55.13075" d="M12.60731 64.04156 C6.15372 61.40826 7.51189 60.50738 4.30653 58.18218 C0.57471 52.58445 0.40819 45.26262 0.40819 38.30784 C0.40819 25.18897 23.13075 -10.02094 41.56856 6.16892 C70.36877 34.96913 13.13075 71.97906 5.6707 59.73378 C5.6707 33.86637 18.20935 25.27915 40.06498 11.61938 C45.19966 7.21823 51.13075 3.97906 55.13075 -0.02094 " />
<glyph unicode="R" horiz-adv-x="39.22472" d="M11.09191 57.98687 C11.13791 54.66773 11.03657 45.60817 10.79894 41.97125 C10.79894 39.09347 10.40831 29.37359 10.60363 17.45953 C10.79894 12.18609 8.54894 0.36969 4.15831 0.36968 C-2.87294 0.85797 2.00357 50.50268 7.08785 56.85802 C18.90738 77.5422 38.56895 54.46344 38.56895 38.25128 C38.56895 32.08681 34.56358 22.95183 27.94995 21.14811 C24.98651 20.3399 12.6043 22.65116 16.36534 23.90484 C25.57201 23.90484 27.22472 -0.02094 39.22472 -0.02094 " />
<glyph unicode="S" horiz-adv-x="44.79877" d="M44 -0.02094 C34 -0.02094 26.77867 -0.46578 19.27477 -0.46578 C13.13186 -0.46578 7.51249 -0.37539 8 -0.02094 C8.96373 0.67974 54.7 -3.22094 41.4 25.17906 C38.80859 28.56109 37.06641 31.815 33.35547 36.01422 C27.49609 41.67828 15.875 53.37683 15.875 60.33062 C15.875 64.24765 18.7084 67.84879 21.92969 64.6275 C30.6556 55.90159 11.73036 -0.02094 0 -0.02094 " />
<glyph unicode="T" horiz-adv-x="44.77017" d="M1.9714 63.34219 C0.66144 63.77884 0.77632 65.16994 1.87742 65.69152 C14.92304 71.87103 33.5139 58.89286 44.25945 69.63841 C44.0834 71.85406 42.37998 57.97563 42.37998 54.97855 C42.37998 44.54641 40.3278 31.85219 36.45965 22.18182 C28.00277 -3.18883 8.6467 -3.16931 5.66406 4.37359 " />
<glyph unicode="U" horiz-adv-x="50.64862" d="M50.21859 68.98059 C50.21859 65.22165 50.21859 61.46272 50.21859 57.70378 C50.21859 8.2472 38 1.97906 26 1.97906 C2 1.97906 4 39.97906 7.55465 65.31563 C12.67416 85.73749 10.10079 55.97906 0 55.97906 " />
<glyph unicode="V" horiz-adv-x="48.69867" d="M46.49336 65.4096 C46.49336 65.4096 46.73965 63.57866 46.96323 62.68437 C48.57099 41.97906 26.59833 3.50569 26.59833 2.07927 C24.89833 4.67927 20.57099 13.97906 13.69663 38.72114 C12.64976 42.28051 11.24793 45.75848 10.31358 49.34014 C6.23054 64.99181 6.57099 65.97906 10.12564 67.38304 C16.57099 67.97906 0.64017 53.75689 0.44637 53.75689 " />
<glyph unicode="W" horiz-adv-x="58.95301" d="M2.60061 59.58325 C5.03081 60.79835 6.47927 64.86892 7.20531 67.28907 C15.34288 94.4129 -13.66781 -0.02094 10.04086 -0.02094 C19.604 -0.02094 27.38229 5.68787 30.32278 15.97957 C32.76998 20.26217 33.54774 41.51137 30.32278 29.41777 C29.64045 26.85905 29.42837 24.14195 29.10113 21.524 C29.10113 13.17243 30.78034 0.49387 42.04086 -0.02094 C66.56589 -0.02094 55.94877 69.60547 54.97055 71.07281 " />
<glyph unicode="X" horiz-adv-x="47.89888" d="M0.56384 66.06742 Q12.52196 49.95097 46.52707 1.97906 M47.2186 66.44205 C35.24411 50.26735 12.50156 18.15376 0.52707 1.97906 " />
<glyph unicode="Y" horiz-adv-x="40" d="M40 -0.02094 C27.54999 -0.02094 8.3048 11.64679 14.17586 2.8402 C17.22945 -0.21339 28 -2.02094 32.55292 3.36827 C35.69507 7.29596 36.46069 17.94319 36.46069 17.94319 C36.46069 21.68612 34.45506 60.92967 34.77084 61.24545 C35.06053 61.53515 35.29336 60.12262 35.29892 60.08369 C35.91814 55.74912 35.92863 49.66962 34.454 45.61439 C29.38889 27.88652 10.36593 23.29398 8.05017 44.13578 C8 49.97906 8 71.97906 0 61.97906 " />
<glyph unicode="Z" horiz-adv-x="52.1925" d="M0.84606 47.15469 C33.33044 51.97906 51.32894 55.97756 41.33044 45.97906 C31.86071 38.14273 3.33044 13.97906 5.96645 15.44136 C23.57655 15.44136 39.37006 18.29519 49.90263 0.7409 C60.16132 -16.3569 27.33044 -36.02094 9.33044 -34.02094 C-7.54413 -30.64603 2.79632 -6.81264 16.53756 -2.23222 C26.16897 1.37956 41.33044 3.97906 53.33044 5.97906 " />
<glyph unicode="[" horiz-adv-x="56" d="M54.68846 1.31971 C54.68846 1.31971 52.12023 1.22574 50.83555 1.22574 C45.72966 1.22574 40.62377 1.22574 35.51788 1.22574 C25.55302 -0.33127 28.67383 1.89427 27.53013 10.71706 C26.4224 19.26241 24.16483 27.29971 21.9857 35.62002 C20.94188 39.6055 11.43032 56.0008 17.85087 56.95199 C24.38444 57.91993 30.99879 57.60981 37.58529 57.60981 " />
<glyph unicode="\" horiz-adv-x="56" d="M8.35955 59.11338 C8.35955 59.45852 12.0748 55.27045 12.40041 54.7906 C15.01701 50.93456 17.71975 47.17515 20.2002 43.23187 C26.17171 33.7387 38.54407 22.12469 42.18999 11.18693 C42.33182 11.0451 42.56588 10.71706 42.56588 10.71706 " />
<glyph unicode="]" horiz-adv-x="56" d="M17.19305 59.30133 C17.83367 59.94195 22.74718 59.17158 23.67722 59.20735 C25.45782 59.27584 28.93973 61.92901 28.93973 60.14709 C28.93973 47.83952 30.73769 35.66614 31.10112 23.3095 C31.24572 18.39328 31.28907 8.55568 31.28907 8.55567 C31.28907 2.95454 32.16724 2.63534 25.08682 2.63534 " />
<glyph unicode="^" horiz-adv-x="56" d="M12.49438 43.41982 C14.7622 47.95546 19.43595 51.5768 22.26762 55.82431 C22.30151 55.87515 23.85221 59.4755 24.33504 59.11338 C26.88369 57.20189 28.78356 50.73041 31.1951 47.83657 C31.76864 47.14832 32.79265 45.67518 32.79265 45.67518 " />
<glyph unicode="_" horiz-adv-x="56" d="M54.31256 1.69561 C54.31256 1.69561 52.18296 1.60163 51.11747 1.60163 C51.11746 1.60163 42.91045 1.60163 38.80695 1.60163 C30.47463 1.60163 22.14232 1.60163 13.81001 1.60163 C10.89683 1.60163 7.98366 1.60163 5.07048 1.60163 C3.69185 1.60163 -0.44298 1.69561 0.93565 1.69561 " />
<glyph unicode="`" horiz-adv-x="56" d="M15.40756 56.67007 C20.59718 51.48045 33.16854 39.26297 33.16854 31.95506 " />
<glyph unicode="a" horiz-adv-x="50" d="M-2 11.97906 Q4 17.97906 12.62453 26.89863 Q21.24906 35.81821 41.6 37.87906 Q30.86714 35.60819 25.17365 33.69035 Q19.48016 31.77252 14.3 27.57906 Q5.13994 17.30192 5.23643 7.51044 Q5.33292 -2.28103 18.9 0.67906 Q23.1 2.07906 27.05 7.47906 Q31 12.87906 34 19.97906 Q46.23504 50.44332 36.66786 24.99295 Q27.10067 -0.45741 32 -0.02094 Q36 -0.02094 41.12018 5.09924 Q46.24037 10.21943 48 11.97906 " />
<glyph unicode="b" horiz-adv-x="48" d="M-2 11.97906 Q-0.175 13.85406 1.74748 15.68416 Q3.66996 17.51427 5.3 19.47906 Q7.92812 22.64691 15.93807 31.87727 Q23.94803 41.10763 26 43.97906 Q31.5 54.77906 33.09659 65.07224 Q34 73.97906 32 69.97906 Q18.22256 29.60636 14.13573 13.25121 Q10.04891 -3.10393 16 -0.02094 Q28 8.97906 31.9 18.62906 Q36 27.97906 28 23.97906 Q28.88369 22.43261 29.44184 14.20583 Q30 5.97906 34 5.97906 Q36 5.97906 39 6.97906 Q42 7.97906 46 11.97906 " />
<glyph unicode="c" horiz-adv-x="42" d="M-2 11.97906 Q23.84259 36.46059 30.92129 41.21983 Q38 45.97906 30 39.97906 Q14 31.97906 9.17026 27.16207 Q4.34053 22.34508 4 15.97906 Q4 3.97906 13 0.97906 Q22 -2.02094 40 11.97906 " />
<glyph unicode="d" horiz-adv-x="46" d="M44 11.97906 Q34 -2.02094 31.09799 1.6602 Q28.19599 5.34135 27.64769 18.31581 Q28.40514 31.41447 33.60257 46.04676 Q38.8 60.67906 46.02843 70.30705 Q55.62971 78.37202 42.06486 46.92554 Q28.5 15.47906 23.2 7.57906 Q18.35865 1.97329 12.85231 0.54086 Q7.34597 -0.89157 2.6 1.47906 Q-3.74559 8.29469 12.95402 19.06068 Q29.65363 29.82666 30 29.97906 Q27.33896 28.45847 23.74544 27.68363 Q20.15192 26.9088 18 25.97906 Q14.46599 24.45214 7.86176 19.84437 Q1.25754 15.2366 0 13.97906 Q0 13.97906 -0.98904 12.98548 Q-1.97809 11.9919 -2 11.97906 " />
<glyph unicode="e" horiz-adv-x="42" d="M-2 11.97906 Q20 31.97906 25.99265 35.97196 Q31.98529 39.96487 32 39.97906 Q37.51814 45.3032 29.75907 44.64113 Q22 43.97906 14 39.97906 Q2 29.97906 1 15.97906 Q0 1.97906 20 -0.02094 Q24 -0.02094 29 3.97906 Q34 7.97906 40 11.97906 " />
<glyph unicode="f" horiz-adv-x="36" d="M-2 11.97906 Q5.98248 19.96154 17.99124 30.9703 Q30 41.97906 32 47.97906 Q36 61.97906 27 49.97906 Q18 37.97906 16 29.97906 C12 17.97906 4 -6.02094 0 -18.02094 Q-4.67168 -33.07611 0.66416 -29.54853 Q6 -26.02094 14.53934 -10.5379 Q16 -8.02094 16 -1.02094 Q16 5.97906 14.28942 8.95556 C13.21707 9.71143 11.07236 11.22318 10 11.97906 Q22 3.97906 26 5.97906 Q30 7.97906 34 11.97906 " />
<glyph unicode="g" horiz-adv-x="34" d="M-2 11.97906 Q6 25.97906 13.18907 28.08041 Q20.37815 30.18176 30 29.97906 Q19.08925 31.67944 12.53091 26.79585 Q5.97257 21.91227 3.30919 19.24888 Q1.7 17.07906 1.55 11.67906 Q1.4 6.27906 2.3 4.27906 Q4 1.97906 6.05971 1.24399 Q8.11943 0.50892 14 1.97906 Q16 3.97906 19 7.97906 Q22 11.97906 30 27.97906 C27.125 20.10406 21.375 4.35406 18.5 -3.52094 Q11.39975 -25.43149 3.69988 -45.1468 Q-4 -64.8621 -4 -52.28601 Q-1.73651 -21.04982 8.1619 -11.50523 Q18.0603 -1.96064 32 11.97906 " />
<glyph unicode="h" horiz-adv-x="44" d="M-2 11.97906 Q12 25.97906 28 51.97906 Q44 77.97906 37 70.77906 Q27.96113 61.74019 16.6243 37.61724 Q5.28748 13.49429 2.3 -0.22094 Q5.4 6.47906 12.85 18.62906 Q20.3 30.77906 26.8 31.17906 Q34.65315 31.68032 26.32657 9.82969 Q18 -12.02094 42 11.97906 " />
<glyph unicode="i" horiz-adv-x="48" d="M-2 11.97906 Q12 23.97906 21 30.97906 Q30 37.97906 34 41.97906 Q40 49.97906 34.58416 47.94713 Q29.16831 45.91519 26 41.97906 Q12 23.97906 16.06511 7.39597 Q20.13021 -9.18713 46 11.97906 M37.66014 58.32189 Q36.83248 57.97906 36 57.97906 Q35.16752 57.97906 34.33986 58.32189 Q33.5122 58.66471 32.92355 59.25337 Q32.3349 59.84202 31.99207 60.66968 Q31.64924 61.49734 31.64924 62.32982 Q31.64924 63.1623 31.99207 63.98996 Q32.3349 64.81761 32.92355 65.40627 Q33.5122 65.99492 34.33986 66.33775 Q35.16752 66.68057 36 66.68057 Q36.83248 66.68057 37.66014 66.33775 Q38.4878 65.99492 39.07645 65.40627 Q39.6651 64.81761 40.00793 63.98996 Q40.35076 63.1623 40.35076 62.32982 Q40.35076 61.49734 40.00793 60.66968 Q39.6651 59.84202 39.07645 59.25337 Q38.4878 58.66471 37.66014 58.32189 z" />
<glyph unicode="j" horiz-adv-x="42" d="M-1.98123 12.01867 Q3.15576 17.15566 5.52593 19.15418 Q7.89611 21.1527 11.61877 23.81867 Q15.14261 26.34225 23.57131 28.16065 Q32 29.97906 36 35.97906 Q44 53.97906 37.76169 46.86182 Q31.52337 39.74457 25.91877 26.31867 Q2.28415 -30.4044 -1.85792 -31.21267 Q-6 -32.02094 -4 -24.02094 Q-2.29104 -17.18511 13.26766 -7.39173 Q28.82637 2.40166 40 11.97906 M40.76315 54.13665 Q40.38268 53.97906 40 53.97906 Q39.61732 53.97906 39.23685 54.13665 Q38.85638 54.29425 38.58579 54.56485 Q38.31519 54.83544 38.15759 55.21591 Q38 55.59638 38 55.97906 Q38 56.36174 38.15759 56.74221 Q38.31519 57.12268 38.58579 57.39327 Q38.85638 57.66387 39.23685 57.82147 Q39.61732 57.97906 40 57.97906 Q40.38268 57.97906 40.76315 57.82147 Q41.14362 57.66387 41.41421 57.39327 Q41.68481 57.12268 41.84241 56.74221 Q42 56.36174 42 55.97906 Q42 55.59638 41.84241 55.21591 Q41.68481 54.83544 41.41421 54.56485 Q41.14362 54.29425 40.76315 54.13665 z" />
<glyph unicode="k" horiz-adv-x="56" d="M-2 11.9655 Q2 15.9655 20.04338 32.91197 Q38.08675 49.85845 47.85896 64.21495 Q55.44481 75.6655 49.24739 72.33985 Q43.04997 69.0142 4.59409 -0.0345 Q21.42011 25.97718 32.71005 35.97134 Q44 45.9655 43.45736 40.93573 Q43.45736 40.15324 43.0172 38.68606 Q42.57705 37.21888 42.35697 36.24076 Q40 29.9655 33.9326 24.30751 Q27.8652 18.64952 26.51123 18.04776 Q22.0046 16.04485 21.0023 19.00517 Q20 21.9655 22.98995 24.50334 Q26.86821 27.95064 28.43411 22.95807 Q30 17.9655 30.0325 16.09153 Q30.01549 4.50734 33.23946 1.22149 Q36.46344 -2.06437 42 1.97906 Q47.0386 5.65881 50.04285 8.34249 Q53.04711 11.02617 54 11.97906 " />
<glyph unicode="l" horiz-adv-x="44" d="M-2 11.97906 Q6.63551 20.61457 12.18159 27.78609 Q17.72767 34.9576 21 39.97906 Q24.54895 45.42469 28.43778 51.04813 Q32.32661 56.67158 36.25937 63.60372 Q44 77.97906 34.8391 67.70343 Q25.67821 57.4278 21.64071 50.36218 Q18 42.37906 16 36.17906 Q14 29.97906 11.57714 21.65451 Q10 1.97906 19.07313 0.05219 Q28.14627 -1.87467 42 11.97906 " />
<glyph unicode="m" horiz-adv-x="56" d="M-2 11.97906 Q4 19.97906 7 25.97906 Q10 31.97906 12 35.97906 Q16.05373 42.86165 14.76153 40.19251 Q13.46933 37.52336 2.97199 8.17366 C2.20133 6.07745 0.66 1.88503 -0.11067 -0.21118 Q20.76022 32.49503 25.37827 37.12077 Q29.99632 41.74652 31.8257 36.41083 Q31.95881 29.9714 28.69837 21.62752 Q25.43793 13.28364 22.51032 6.38376 Q18 -8.02094 27.26147 8.00186 Q36.52294 24.02466 46 37.97906 Q50 41.97906 41 13.97906 Q32 -14.02094 54 11.97906 " />
<glyph unicode="n" horiz-adv-x="40" d="M-2 11.97906 Q4 17.97906 9 27.97906 Q14 37.97906 16 41.97906 Q20 49.97906 15.83683 41.33881 Q11.67367 32.69856 7.40193 21.86184 C5.75204 17.02794 2.45225 7.36016 0.80236 2.52626 C0.62869 1.88946 0.28134 0.61586 0.10767 -0.02094 Q4.06621 7.9575 10.0331 22.96828 Q16 37.97906 26 37.97906 Q36 37.97906 26 18.97906 Q16 -0.02094 24 -0.02094 Q26 -0.02094 29 2.97906 Q32 5.97906 38 11.97906 " />
<glyph unicode="o" horiz-adv-x="36" d="M-2 11.97906 Q14 29.97906 20.79897 33.31354 Q27.59793 36.64802 30 33.97906 Q30.9 30.47906 29.7 26.52906 Q28.5 22.57906 26.8 17.97906 Q16.67178 -1.17249 9.23589 -0.34671 Q1.8 0.47906 4.3 12.87906 Q5.6 17.87906 7.7 21.57906 Q9.8 25.27906 11.4 26.97906 Q13.57886 29.11434 25.33943 33.3967 Q37.1 37.67906 18.8 33.57906 Q-2.9 15.57906 9.55 6.77906 Q22 -2.02094 34 11.97906 " />
<glyph unicode="p" horiz-adv-x="56" d="M-2 11.97906 Q7.1 22.67906 10.30209 25.73494 Q13.50418 28.79081 22 35.97906 Q32 41.97906 8.75046 -6.09629 Q-14.49909 -54.17165 -8 -34.03979 Q8.01295 6.10534 31.19298 26.4751 Q54.37302 46.84486 48 29.97906 Q37.1 -0.42094 39.61553 -0.15541 Q42.13106 0.11012 54 11.97906 " />
<glyph unicode="q" horiz-adv-x="38" d="M-2 11.97906 Q12.20682 23.44879 22.45341 27.36392 Q32.7 31.27906 29 22.27906 C29.25 23.70406 29.75 26.55406 30 27.97906 Q21.36941 30.13671 10.9847 21.50788 Q0.6 12.87906 0.70617 4.18306 Q2.84885 -2.86911 13.52443 1.75497 Q24.2 6.37906 33.52713 32.65839 C25.17035 12.68856 8.45678 -27.25111 0.1 -47.22094 C9.075 -32.42094 27.025 -2.82094 36 11.97906 " />
<glyph unicode="r" horiz-adv-x="46" d="M-2 11.97906 Q5.55563 19.53469 15.87782 30.35688 Q26.2 41.17906 22.38347 42.52234 Q19.4 43.57906 14.96116 38.95988 Q10.52231 34.3407 7.90582 26.61887 Q8 24.27906 9.24592 22.45176 Q10.49184 20.62446 12.29299 20.36715 Q20.24761 21.80575 27.5238 25.64241 Q34.8 29.47906 41.35797 38.35454 Q20.6 -3.42094 28.3 0.27906 Q36 3.97906 44 11.97906 " />
<glyph unicode="s" horiz-adv-x="42" d="M-2 11.97906 Q16 29.17906 21.55 37.07906 Q27.1 44.97906 27.81185 48.44733 Q28 51.87906 26.45 52.02906 Q24.9 52.17906 24.29913 49.90087 Q19.66477 31.94131 22.60987 16.62681 Q25.55498 1.31231 30 1.97906 Q30 1.97906 26 0.97906 Q22 -0.02094 11 0.37906 Q22 -0.02094 27 0.97906 Q32 1.97906 40 11.97906 " />
<glyph unicode="t" horiz-adv-x="30" d="M-2 11.97906 Q18 27.97906 24.08819 45.893 Q30.17637 63.80694 32 69.97906 Q26 61.97906 20.2088 48.97661 Q14.4176 35.97416 12 25.97906 Q6 3.97906 11.37582 1.23004 Q16.75164 -1.51897 28 11.97906 M2 33.97906 Q9.26541 35.83901 16.99985 37.97902 Q24.7343 40.11904 32 41.97906 " />
<glyph unicode="u" horiz-adv-x="50" d="M-2 11.97906 Q4 17.97906 15.45 34.12906 Q26.9 50.27906 19 40.87906 Q15.88604 35.56751 14.12969 32.11627 Q12.37333 28.66502 10.8 24.97906 Q9.39456 21.68688 8.25183 17.10821 Q7.10909 12.52953 7.1 9.17906 Q7.08116 2.33293 12.34058 0.35599 Q17.6 -1.62094 26 5.97906 Q30 12.47906 34 24.22906 Q38 35.97906 38.22975 41.98509 Q38 47.97906 32 16.97906 Q26 -14.02094 48 11.97906 " />
<glyph unicode="v" horiz-adv-x="42" d="M-2 11.97906 Q4.98995 18.96901 9.18243 28.0473 Q13.37491 37.12559 13.73482 39.4907 Q18 11.97906 18.75 6.72906 Q19.5 1.47906 20 -0.02094 Q24 5.97906 28.35 16.97906 Q32.7 27.97906 36.93796 36.9715 Q38.49769 40.33668 33.14885 19.35787 Q27.8 -1.62094 40 11.97906 " />
<glyph unicode="w" horiz-adv-x="62" d="M-2 11.97906 Q6 19.97906 10.6 25.32906 Q15.2 30.67906 18 33.97906 Q26 43.97906 22.3 37.27906 Q18.6 30.57906 15.1 22.27906 Q13.9 19.37906 13.45 18.35406 Q13 17.32906 12.3 15.67906 C11.15 13.45406 8.85 9.00406 7.7 6.77906 Q-0.8 -8.72094 15.59861 11.6277 Q31.99722 31.97633 32 31.97906 Q31.99959 31.92896 31.44979 12.20401 Q30.9 -7.52094 36.4 4.67906 Q45.5 24.77906 46.7 27.27906 Q47.9 29.77906 50 33.97906 Q58.8 53.67906 52.4 23.82906 Q46 -6.02094 60 11.97906 " />
<glyph unicode="x" horiz-adv-x="52" d="M-2 11.97906 Q9.23744 23.2165 14.61872 32.59778 Q20 41.97906 26.29385 30.14315 Q28 25.97906 23.03577 15.90627 Q18.07154 5.83348 14.13236 2.33199 Q12.43541 0.82359 8.06618 0.21277 Q3.69695 -0.39804 2 -0.02094 Q0.69352 0.26939 8.34676 0.12422 Q16 -0.02094 22 9.97906 Q24.9115 22.48145 30.45575 27.23025 Q36 31.97906 48 35.97906 Q34.9 33.77906 25.45 17.87906 Q16 1.97906 32 -0.02094 Q38 -0.02094 41 2.97906 Q44 5.97906 50 11.97906 " />
<glyph unicode="y" horiz-adv-x="42" d="M-2 11.97906 Q6 19.97906 8 26.97906 Q10 33.97906 10 35.97906 Q10 43.97906 4 21.97906 Q-2 -0.02094 14 -0.02094 Q19.1 -0.02094 23.75752 9.56856 Q28.41504 19.15807 33.79947 30.59998 Q38 39.97906 33.77218 29.63461 Q29.54437 19.29016 22.7789 3.89628 Q6.93892 -22.43371 -5.70636 -34.35794 Q-18.35165 -46.28216 -1.66417 -23.09 Q11.42194 -7.60513 22.71097 -0.81304 Q34 5.97906 40 11.97906 " />
<glyph unicode="z" horiz-adv-x="56" d="M-2 11.97906 Q2.48913 15.34591 5.4918 19.96755 Q8.49447 24.5892 12 25.97906 Q14.74129 27.06592 19.37065 27.52249 Q24 27.97906 31.2 27.87906 Q46 27.97906 33.52567 18.4066 Q21.05135 8.83415 13.4 3.27906 Q6 -0.02094 11.9767 -0.02439 Q17.95341 -0.02784 18 -0.02094 C21 -0.02094 27 -0.02094 30 -0.02094 Q36.21354 -0.76065 35.614 -5.28932 Q35.01446 -9.81799 28.1 -13.62094 Q4.81418 -23.87779 0.14301 -25.76111 Q-4.52816 -27.64442 -6 -28.02094 Q-18.48661 -33.62717 -11.89115 -25.17134 Q-5.2957 -16.7155 10 -8.02094 Q21.12487 -1.69742 31.56243 -0.85918 Q42 -0.02094 54 11.97906 " />
<glyph unicode="{" horiz-adv-x="56" d="M36.17569 1.50766 C33.26433 1.50766 25.27477 -1.19657 25.27477 4.98468 C25.27477 12.97836 27.90603 19.88538 27.90603 27.72625 C27.90603 35.59001 20.12261 28.42286 23.7712 26.59857 C23.7712 26.59857 29.39455 27.77506 30.16139 30.07559 C31.20967 33.22043 28.19649 39.95136 27.53013 42.94995 C27.53013 42.94996 27.23174 44.81256 26.87232 45.67518 C25.3802 49.25625 23.66089 57.44435 26.02656 60.99285 C26.31665 61.42799 30.53728 63.56781 30.53728 62.2145 " />
<glyph unicode="|" horiz-adv-x="56" d="M28.84576 66.53728 C28.86925 49.92748 28.91624 16.70787 28.93973 0.09806 " />
<glyph unicode="}" horiz-adv-x="56" d="M24.05312 61.55669 C24.05312 62.44184 23.99194 62.91842 24.89888 63.24821 C36.19749 67.3568 38.37172 50.44313 34.67211 43.04392 C33.51918 39.58512 29.03439 35.8066 31.10112 31.67314 C32.25463 29.36612 33.45046 31.15746 33.45046 32.70684 C33.45046 34.36165 30.63126 33.199 30.63126 31.29724 C30.63126 26.18333 33.18172 22.10273 34.0143 17.10725 C40.79202 8.6351 30.85914 -5.43227 27.15424 1.97753 " />
<glyph unicode="~" horiz-adv-x="56" d="M44.72727 36.84167 C44.72727 29.8963 41.20561 23.96731 33.54443 23.96731 C27.93081 23.96731 23.2911 33.32566 17.75689 35.3381 C9.18182 38.45631 9.16558 28.29009 5.07048 28.29009 " />
<glyph unicode="²" horiz-adv-x="56" d="M49.80184 53.47497 C49.80184 53.47497 43.35447 52.91113 40.12257 52.91113 C31.7921 54.19274 42.95153 54.40145 42.18999 62.77834 C41.76449 67.45888 35.15406 70.77816 31.66496 67.28907 " />
<glyph unicode="³" horiz-adv-x="56" d="M42.75383 68.6047 C41.91263 69.4459 45.80953 70.54177 46.13687 70.57814 C56.42867 71.72167 56.50036 57.70378 46.88866 57.70378 C45.69275 57.70378 45.88755 58.67516 46.88866 58.92543 C52.9252 60.43457 57.00292 54.81483 54.31256 49.43412 C53.215 45.04385 44.78776 47.44555 42.09602 48.11849 " />
<glyph unicode="´" horiz-adv-x="56" d="M36.92748 64.09397 C34.35841 60.66855 31.44804 57.3105 27.71808 55.07252 " />
<glyph unicode="µ" horiz-adv-x="56" d="M14.88049 -0.04086 C23.14934 -0.04086 24.79436 12.773 25.36057 18.43514 C25.56803 20.50974 25.36057 22.71416 25.36057 24.80082 C25.36057 25.65475 25.36057 28.21655 25.36057 27.36261 C25.36057 18.75243 25.24291 10.23853 26.05924 1.66701 C26.19507 0.24086 27.53421 -2.36976 27.53422 -2.36977 C33.08549 -7.92103 36.24446 15.71725 35.99591 17.27068 C35.96607 17.4572 35.8601 19.06235 35.84065 19.21144 C35.66103 20.58856 35.71738 19.38487 35.4525 20.84167 C35.23832 22.0197 35.06435 24.41266 35.06435 24.41267 C34.02927 31.65822 35.17481 16.81245 35.4525 15.56282 C37.1914 7.73776 38.30984 -0.38614 39.48927 -8.34729 C40.00437 -11.8242 40.65373 -18.82738 40.65373 -18.82738 " />
<glyph unicode="¶" horiz-adv-x="56" d="" />
<glyph unicode="·" horiz-adv-x="56" d="M28.46987 28.29009 C28.46987 25.49196 33.27043 28.66599 29.31563 28.66599 " />
<glyph unicode="¹" horiz-adv-x="56" d="M50.6476 69.73238 C50.6476 65.1748 51.77528 56.10623 51.77528 56.10623 " />
<glyph unicode="º" horiz-adv-x="56" d="M48.48621 66.8192 C48.48621 66.8192 52.47433 66.8472 53.37283 65.4096 C54.45797 63.67337 52.89665 59.80042 51.11747 59.20735 C45.52636 57.34365 45.97544 67.38304 50.36568 67.38304 " />
<glyph unicode="‐" horiz-adv-x="56" d="M3.37896 32.33095 C3.37896 32.51893 13.34124 32.42492 14.1859 32.42492 C23.05073 32.42492 31.91556 32.42492 40.78039 32.42492 C42.56588 32.42492 46.13686 32.42492 46.13687 32.42492 C46.73204 32.42492 47.3272 32.42492 47.92237 32.42492 " />
<glyph unicode="‑" horiz-adv-x="56" d="M47.54648 20.67824 C47.54648 20.67824 39.52741 20.67824 35.51788 20.67824 C29.52212 20.67824 15.15021 18.37517 9.86313 21.8999 " />
<glyph unicode="‒" horiz-adv-x="56" d="M3.56691 14.94586 C20.04358 14.94586 36.52026 14.94586 52.99694 14.94586 " />
<glyph unicode="–" horiz-adv-x="56" d="M4.03677 35.62002 C15.67713 39.50014 35.35637 35.71399 47.92237 35.71399 " />
<glyph unicode="—" horiz-adv-x="56" d="M49.61389 1.88355 C49.61389 1.88355 42.8402 1.74868 39.46476 1.97753 C31.3444 2.52806 23.57217 3.57508 15.40756 3.57508 C15.02059 3.57508 1.87538 3.07037 1.87538 4.04494 " />
<glyph unicode="’" horiz-adv-x="56" d="M27.24821 58.83146 C27.24821 51.29262 24.82008 40.22472 15.31359 40.22472 " />
<glyph unicode="“" horiz-adv-x="56" d="M28.28192 37.78141 C20.59345 30.09294 14.14031 51.53246 13.24617 55.82431 C13.21546 55.9717 12.49576 59.20735 12.7763 59.20735 M38.24311 34.21042 C38.24311 34.21042 35.98444 35.89517 35.04801 36.93565 C31.63408 40.72891 23.67722 51.80877 23.67722 57.23391 " />
<glyph unicode="”" horiz-adv-x="56" d="M25.55669 63.06027 C25.55669 53.88701 20.31406 40.88344 13.43412 35.15015 M49.80184 62.40245 C46.36169 55.52216 50.30906 46.22384 42.18999 41.3524 " />
</font>
</svg>
